<svg width="30" height="27" viewBox="0 0 30 27" fill="none" xmlns="http://www.w3.org/2000/svg">
<path d="M20.8699 10.1417L20.8642 10.1475C20.7733 10.0588 20.6513 10.0091 20.5242 10.0091C20.3971 10.0091 20.2751 10.0588 20.1842 10.1475L20.1842 10.1475L15.0118 15.1846L15.219 15.3974L15.0005 15.1846L9.82806 10.1475L9.82562 10.15V10.1441C9.73498 10.0569 9.61399 10.0081 9.48805 10.0081C9.36097 10.0081 9.23894 10.0577 9.14804 10.1464L9.14803 10.1465C9.10374 10.1895 9.06854 10.241 9.0445 10.2979C9.02047 10.3548 9.00808 10.416 9.00808 10.4777C9.00808 10.5395 9.02047 10.6006 9.0445 10.6575C9.06854 10.7144 9.10374 10.7659 9.14803 10.809L9.14239 10.8148L9.14803 10.809L14.6506 16.1676C14.7457 16.2602 14.8733 16.3121 15.0061 16.3121C15.139 16.3121 15.2665 16.2602 15.3617 16.1676L20.8642 10.8079C20.8642 10.8079 20.8642 10.8079 20.8642 10.8079C20.9082 10.7649 20.9431 10.7135 20.967 10.6568C20.9908 10.6001 21.0031 10.5392 21.0031 10.4777C21.0031 10.4162 20.9908 10.3553 20.967 10.2986C20.9431 10.2419 20.9082 10.1905 20.8642 10.1475L20.8699 10.1417ZM20.8699 10.1417C20.7775 10.0515 20.6534 10.001 20.5242 10.001C20.395 10.001 20.271 10.0515 20.1786 10.1417H20.8699Z" fill="#E85451" stroke="#BBBBBB" stroke-width="0.0161703"/>
</svg>
