<svg width="326" height="189" viewBox="0 0 326 189" fill="none" xmlns="http://www.w3.org/2000/svg">
<rect y="116" width="326" height="73" rx="8" fill="#F2F2F2"/>
<path d="M99.8751 140.887V141.748H97.6635V149H96.6042V141.748H94.381V140.887H99.8751ZM106.999 145.566C106.999 145.768 106.987 145.981 106.964 146.206H101.866C101.904 146.835 102.118 147.328 102.506 147.685C102.902 148.034 103.379 148.208 103.938 148.208C104.395 148.208 104.776 148.104 105.078 147.894C105.389 147.677 105.606 147.39 105.73 147.033H106.871C106.7 147.646 106.359 148.146 105.847 148.534C105.334 148.915 104.698 149.105 103.938 149.105C103.332 149.105 102.789 148.969 102.308 148.697C101.835 148.426 101.462 148.042 101.191 147.545C100.919 147.041 100.783 146.459 100.783 145.799C100.783 145.139 100.915 144.561 101.179 144.065C101.443 143.568 101.811 143.188 102.285 142.924C102.766 142.652 103.317 142.517 103.938 142.517C104.543 142.517 105.078 142.648 105.544 142.912C106.01 143.176 106.366 143.541 106.615 144.006C106.871 144.464 106.999 144.984 106.999 145.566ZM105.905 145.345C105.905 144.942 105.816 144.596 105.637 144.309C105.459 144.014 105.214 143.793 104.904 143.646C104.601 143.49 104.264 143.413 103.891 143.413C103.356 143.413 102.898 143.584 102.518 143.925C102.145 144.266 101.932 144.74 101.877 145.345H105.905ZM109.456 140.386V149H108.397V140.386H109.456ZM112.321 140.386V149H111.262V140.386H112.321ZM122.886 142.621V149H121.827V148.057C121.625 148.383 121.342 148.639 120.977 148.825C120.621 149.004 120.225 149.093 119.79 149.093C119.294 149.093 118.847 148.992 118.452 148.79C118.056 148.581 117.742 148.271 117.509 147.859C117.284 147.448 117.171 146.947 117.171 146.358V142.621H118.219V146.218C118.219 146.847 118.378 147.332 118.696 147.673C119.014 148.007 119.449 148.174 120 148.174C120.566 148.174 121.012 147.999 121.338 147.65C121.664 147.301 121.827 146.792 121.827 146.125V142.621H122.886ZM126.933 149.105C126.444 149.105 126.006 149.023 125.618 148.86C125.23 148.69 124.923 148.457 124.698 148.162C124.473 147.859 124.349 147.514 124.326 147.126H125.42C125.451 147.444 125.598 147.704 125.862 147.906C126.134 148.108 126.487 148.208 126.921 148.208C127.325 148.208 127.643 148.119 127.876 147.941C128.109 147.762 128.225 147.537 128.225 147.266C128.225 146.986 128.101 146.781 127.853 146.649C127.604 146.509 127.22 146.373 126.7 146.241C126.227 146.117 125.839 145.993 125.536 145.869C125.241 145.737 124.985 145.547 124.768 145.298C124.558 145.042 124.454 144.709 124.454 144.297C124.454 143.972 124.551 143.673 124.745 143.401C124.939 143.13 125.214 142.916 125.571 142.761C125.928 142.598 126.336 142.517 126.793 142.517C127.5 142.517 128.07 142.695 128.504 143.052C128.939 143.409 129.172 143.898 129.203 144.519H128.144C128.12 144.185 127.985 143.917 127.736 143.715C127.496 143.514 127.17 143.413 126.758 143.413C126.378 143.413 126.076 143.494 125.851 143.657C125.625 143.82 125.513 144.034 125.513 144.297C125.513 144.507 125.579 144.682 125.711 144.821C125.851 144.953 126.021 145.062 126.223 145.147C126.433 145.225 126.72 145.314 127.084 145.415C127.542 145.539 127.915 145.663 128.202 145.787C128.489 145.904 128.733 146.082 128.935 146.323C129.145 146.563 129.253 146.878 129.261 147.266C129.261 147.615 129.164 147.929 128.97 148.208C128.776 148.488 128.501 148.709 128.144 148.872C127.794 149.027 127.391 149.105 126.933 149.105ZM142.357 142.621L140.366 149H139.272L137.736 143.937L136.199 149H135.105L133.103 142.621H134.186L135.652 147.976L137.235 142.621H138.318L139.866 147.987L141.309 142.621H142.357ZM146.574 142.505C147.055 142.505 147.49 142.61 147.878 142.819C148.266 143.021 148.568 143.327 148.786 143.739C149.011 144.15 149.123 144.651 149.123 145.24V149H148.076V145.392C148.076 144.755 147.917 144.27 147.598 143.937C147.28 143.595 146.846 143.424 146.295 143.424C145.736 143.424 145.29 143.599 144.956 143.948C144.63 144.297 144.467 144.806 144.467 145.473V149H143.408V140.386H144.467V143.529C144.677 143.203 144.964 142.951 145.329 142.773C145.701 142.594 146.116 142.505 146.574 142.505ZM150.458 145.787C150.458 145.136 150.59 144.565 150.854 144.076C151.117 143.58 151.478 143.196 151.936 142.924C152.402 142.652 152.918 142.517 153.484 142.517C154.043 142.517 154.528 142.637 154.939 142.877C155.35 143.118 155.657 143.421 155.859 143.785V142.621H156.93V149H155.859V147.813C155.649 148.185 155.335 148.496 154.916 148.744C154.505 148.984 154.023 149.105 153.473 149.105C152.906 149.105 152.394 148.965 151.936 148.686C151.478 148.406 151.117 148.014 150.854 147.51C150.59 147.006 150.458 146.431 150.458 145.787ZM155.859 145.799C155.859 145.318 155.762 144.899 155.568 144.542C155.374 144.185 155.11 143.913 154.776 143.727C154.45 143.533 154.089 143.436 153.694 143.436C153.298 143.436 152.937 143.529 152.611 143.715C152.285 143.902 152.025 144.173 151.831 144.53C151.637 144.887 151.54 145.306 151.54 145.787C151.54 146.276 151.637 146.703 151.831 147.068C152.025 147.425 152.285 147.7 152.611 147.894C152.937 148.08 153.298 148.174 153.694 148.174C154.089 148.174 154.45 148.08 154.776 147.894C155.11 147.7 155.374 147.425 155.568 147.068C155.762 146.703 155.859 146.28 155.859 145.799ZM160.012 143.494V147.254C160.012 147.564 160.078 147.786 160.21 147.917C160.341 148.042 160.57 148.104 160.896 148.104H161.676V149H160.722C160.132 149 159.69 148.864 159.395 148.593C159.1 148.321 158.952 147.875 158.952 147.254V143.494H158.126V142.621H158.952V141.015H160.012V142.621H161.676V143.494H160.012ZM171.557 142.621L167.716 152.003H166.622L167.879 148.93L165.306 142.621H166.482L168.484 147.789L170.463 142.621H171.557ZM175.404 149.105C174.806 149.105 174.263 148.969 173.774 148.697C173.293 148.426 172.913 148.042 172.633 147.545C172.362 147.041 172.226 146.459 172.226 145.799C172.226 145.147 172.366 144.573 172.645 144.076C172.932 143.572 173.32 143.188 173.809 142.924C174.298 142.652 174.845 142.517 175.45 142.517C176.055 142.517 176.603 142.652 177.091 142.924C177.58 143.188 177.964 143.568 178.244 144.065C178.531 144.561 178.674 145.139 178.674 145.799C178.674 146.459 178.527 147.041 178.232 147.545C177.945 148.042 177.553 148.426 177.057 148.697C176.56 148.969 176.009 149.105 175.404 149.105ZM175.404 148.174C175.784 148.174 176.141 148.084 176.475 147.906C176.808 147.727 177.076 147.46 177.278 147.103C177.487 146.746 177.592 146.311 177.592 145.799C177.592 145.287 177.491 144.852 177.289 144.495C177.088 144.138 176.824 143.875 176.498 143.704C176.172 143.525 175.819 143.436 175.439 143.436C175.051 143.436 174.694 143.525 174.368 143.704C174.05 143.875 173.793 144.138 173.599 144.495C173.405 144.852 173.308 145.287 173.308 145.799C173.308 146.319 173.402 146.757 173.588 147.114C173.782 147.471 174.038 147.739 174.356 147.917C174.674 148.088 175.023 148.174 175.404 148.174ZM185.724 142.621V149H184.665V148.057C184.463 148.383 184.18 148.639 183.815 148.825C183.458 149.004 183.063 149.093 182.628 149.093C182.131 149.093 181.685 148.992 181.289 148.79C180.894 148.581 180.579 148.271 180.347 147.859C180.122 147.448 180.009 146.947 180.009 146.358V142.621H181.057V146.218C181.057 146.847 181.216 147.332 181.534 147.673C181.852 148.007 182.287 148.174 182.838 148.174C183.404 148.174 183.85 147.999 184.176 147.65C184.502 147.301 184.665 146.792 184.665 146.125V142.621H185.724ZM193.724 142.505C194.5 142.505 195.128 142.742 195.61 143.215C196.091 143.681 196.331 144.356 196.331 145.24V149H195.284V145.392C195.284 144.755 195.125 144.27 194.806 143.937C194.488 143.595 194.054 143.424 193.503 143.424C192.944 143.424 192.498 143.599 192.164 143.948C191.838 144.297 191.675 144.806 191.675 145.473V149H190.616V142.621H191.675V143.529C191.885 143.203 192.168 142.951 192.525 142.773C192.89 142.594 193.289 142.505 193.724 142.505ZM203.881 145.566C203.881 145.768 203.87 145.981 203.847 146.206H198.748C198.787 146.835 199 147.328 199.388 147.685C199.784 148.034 200.261 148.208 200.82 148.208C201.278 148.208 201.658 148.104 201.961 147.894C202.271 147.677 202.489 147.39 202.613 147.033H203.753C203.583 147.646 203.241 148.146 202.729 148.534C202.217 148.915 201.581 149.105 200.82 149.105C200.215 149.105 199.672 148.969 199.191 148.697C198.717 148.426 198.345 148.042 198.073 147.545C197.801 147.041 197.666 146.459 197.666 145.799C197.666 145.139 197.798 144.561 198.061 144.065C198.325 143.568 198.694 143.188 199.167 142.924C199.648 142.652 200.199 142.517 200.82 142.517C201.425 142.517 201.961 142.648 202.426 142.912C202.892 143.176 203.249 143.541 203.497 144.006C203.753 144.464 203.881 144.984 203.881 145.566ZM202.787 145.345C202.787 144.942 202.698 144.596 202.52 144.309C202.341 144.014 202.097 143.793 201.786 143.646C201.484 143.49 201.146 143.413 200.774 143.413C200.238 143.413 199.78 143.584 199.4 143.925C199.028 144.266 198.814 144.74 198.76 145.345H202.787ZM211.1 145.566C211.1 145.768 211.088 145.981 211.065 146.206H205.966C206.005 146.835 206.219 147.328 206.607 147.685C207.002 148.034 207.48 148.208 208.038 148.208C208.496 148.208 208.876 148.104 209.179 147.894C209.489 147.677 209.707 147.39 209.831 147.033H210.972C210.801 147.646 210.459 148.146 209.947 148.534C209.435 148.915 208.799 149.105 208.038 149.105C207.433 149.105 206.89 148.969 206.409 148.697C205.935 148.426 205.563 148.042 205.291 147.545C205.02 147.041 204.884 146.459 204.884 145.799C204.884 145.139 205.016 144.561 205.28 144.065C205.543 143.568 205.912 143.188 206.385 142.924C206.867 142.652 207.418 142.517 208.038 142.517C208.644 142.517 209.179 142.648 209.645 142.912C210.11 143.176 210.467 143.541 210.716 144.006C210.972 144.464 211.1 144.984 211.1 145.566ZM210.005 145.345C210.005 144.942 209.916 144.596 209.738 144.309C209.559 144.014 209.315 143.793 209.004 143.646C208.702 143.49 208.364 143.413 207.992 143.413C207.456 143.413 206.998 143.584 206.618 143.925C206.246 144.266 206.032 144.74 205.978 145.345H210.005ZM212.102 145.787C212.102 145.136 212.234 144.565 212.498 144.076C212.762 143.58 213.122 143.196 213.58 142.924C214.046 142.652 214.566 142.517 215.14 142.517C215.637 142.517 216.098 142.633 216.525 142.866C216.952 143.091 217.278 143.39 217.503 143.762V140.386H218.574V149H217.503V147.801C217.293 148.181 216.983 148.496 216.572 148.744C216.161 148.984 215.679 149.105 215.128 149.105C214.562 149.105 214.046 148.965 213.58 148.686C213.122 148.406 212.762 148.014 212.498 147.51C212.234 147.006 212.102 146.431 212.102 145.787ZM217.503 145.799C217.503 145.318 217.406 144.899 217.212 144.542C217.018 144.185 216.754 143.913 216.42 143.727C216.095 143.533 215.734 143.436 215.338 143.436C214.942 143.436 214.581 143.529 214.255 143.715C213.93 143.902 213.67 144.173 213.476 144.53C213.282 144.887 213.185 145.306 213.185 145.787C213.185 146.276 213.282 146.703 213.476 147.068C213.67 147.425 213.93 147.7 214.255 147.894C214.581 148.08 214.942 148.174 215.338 148.174C215.734 148.174 216.095 148.08 216.42 147.894C216.754 147.7 217.018 147.425 217.212 147.068C217.406 146.703 217.503 146.28 217.503 145.799ZM220.701 149.07C220.5 149.07 220.329 149 220.189 148.86C220.05 148.721 219.98 148.55 219.98 148.348C219.98 148.146 220.05 147.976 220.189 147.836C220.329 147.696 220.5 147.626 220.701 147.626C220.895 147.626 221.058 147.696 221.19 147.836C221.33 147.976 221.4 148.146 221.4 148.348C221.4 148.55 221.33 148.721 221.19 148.86C221.058 149 220.895 149.07 220.701 149.07ZM67.1363 160.887V169H66.077V160.887H67.1363ZM70.2336 163.494V167.254C70.2336 167.564 70.2996 167.786 70.4315 167.917C70.5634 168.042 70.7923 168.104 71.1182 168.104H71.8981V169H70.9436C70.3539 169 69.9116 168.864 69.6167 168.593C69.3218 168.321 69.1744 167.875 69.1744 167.254V163.494H68.3479V162.621H69.1744V161.015H70.2336V162.621H71.8981V163.494H70.2336ZM84.782 162.621L82.7915 169H81.6974L80.1609 163.937L78.6244 169H77.5303L75.5282 162.621H76.6107L78.0773 167.976L79.6604 162.621H80.7429L82.291 167.987L83.7344 162.621H84.782ZM88.6152 169.105C88.0176 169.105 87.4744 168.969 86.9856 168.697C86.5044 168.426 86.1242 168.042 85.8448 167.545C85.5732 167.041 85.4374 166.459 85.4374 165.799C85.4374 165.147 85.5771 164.573 85.8565 164.076C86.1436 163.572 86.5316 163.188 87.0205 162.924C87.5094 162.652 88.0564 162.517 88.6617 162.517C89.267 162.517 89.8141 162.652 90.303 162.924C90.7918 163.188 91.176 163.568 91.4553 164.065C91.7424 164.561 91.886 165.139 91.886 165.799C91.886 166.459 91.7386 167.041 91.4437 167.545C91.1566 168.042 90.7647 168.426 90.268 168.697C89.7714 168.969 89.2204 169.105 88.6152 169.105ZM88.6152 168.174C88.9954 168.174 89.3524 168.084 89.686 167.906C90.0197 167.727 90.2874 167.46 90.4892 167.103C90.6987 166.746 90.8035 166.311 90.8035 165.799C90.8035 165.287 90.7026 164.852 90.5008 164.495C90.2991 164.138 90.0352 163.875 89.7093 163.704C89.3834 163.525 89.0303 163.436 88.6501 163.436C88.2621 163.436 87.9051 163.525 87.5792 163.704C87.261 163.875 87.005 164.138 86.811 164.495C86.617 164.852 86.52 165.287 86.52 165.799C86.52 166.319 86.6131 166.757 86.7993 167.114C86.9933 167.471 87.2494 167.739 87.5676 167.917C87.8857 168.088 88.2349 168.174 88.6152 168.174ZM96.3866 162.505C97.1626 162.505 97.7912 162.742 98.2723 163.215C98.7534 163.681 98.994 164.356 98.994 165.24V169H97.9464V165.392C97.9464 164.755 97.7873 164.27 97.4691 163.937C97.151 163.595 96.7164 163.424 96.1654 163.424C95.6067 163.424 95.1605 163.599 94.8268 163.948C94.5009 164.297 94.338 164.806 94.338 165.473V169H93.2787V162.621H94.338V163.529C94.5475 163.203 94.8307 162.951 95.1877 162.773C95.5524 162.594 95.952 162.505 96.3866 162.505ZM101.26 159.735L101.12 162.051H100.387L100.235 159.735H101.26ZM103.869 163.494V167.254C103.869 167.564 103.935 167.786 104.067 167.917C104.199 168.042 104.428 168.104 104.754 168.104H105.534V169H104.579C103.989 169 103.547 168.864 103.252 168.593C102.957 168.321 102.81 167.875 102.81 167.254V163.494H101.983V162.621H102.81V161.015H103.869V162.621H105.534V163.494H103.869ZM111.212 163.494V167.254C111.212 167.564 111.278 167.786 111.41 167.917C111.542 168.042 111.771 168.104 112.097 168.104H112.877V169H111.922C111.333 169 110.89 168.864 110.595 168.593C110.301 168.321 110.153 167.875 110.153 167.254V163.494H109.327V162.621H110.153V161.015H111.212V162.621H112.877V163.494H111.212ZM113.764 165.787C113.764 165.136 113.896 164.565 114.16 164.076C114.424 163.58 114.785 163.196 115.243 162.924C115.708 162.652 116.224 162.517 116.791 162.517C117.35 162.517 117.835 162.637 118.246 162.877C118.657 163.118 118.964 163.421 119.165 163.785V162.621H120.236V169H119.165V167.813C118.956 168.185 118.642 168.496 118.223 168.744C117.811 168.984 117.33 169.105 116.779 169.105C116.213 169.105 115.701 168.965 115.243 168.686C114.785 168.406 114.424 168.014 114.16 167.51C113.896 167.006 113.764 166.431 113.764 165.787ZM119.165 165.799C119.165 165.318 119.068 164.899 118.874 164.542C118.68 164.185 118.417 163.913 118.083 163.727C117.757 163.533 117.396 163.436 117 163.436C116.605 163.436 116.244 163.529 115.918 163.715C115.592 163.902 115.332 164.173 115.138 164.53C114.944 164.887 114.847 165.306 114.847 165.787C114.847 166.276 114.944 166.703 115.138 167.068C115.332 167.425 115.592 167.7 115.918 167.894C116.244 168.08 116.605 168.174 117 168.174C117.396 168.174 117.757 168.08 118.083 167.894C118.417 167.7 118.68 167.425 118.874 167.068C119.068 166.703 119.165 166.28 119.165 165.799ZM125.588 169L123.086 166.183V169H122.026V160.386H123.086V165.45L125.542 162.621H127.02L124.017 165.799L127.032 169H125.588ZM133.837 165.566C133.837 165.768 133.825 165.981 133.802 166.206H128.704C128.742 166.835 128.956 167.328 129.344 167.685C129.74 168.034 130.217 168.208 130.776 168.208C131.233 168.208 131.614 168.104 131.916 167.894C132.227 167.677 132.444 167.39 132.568 167.033H133.709C133.538 167.646 133.197 168.146 132.684 168.534C132.172 168.915 131.536 169.105 130.776 169.105C130.17 169.105 129.627 168.969 129.146 168.697C128.673 168.426 128.3 168.042 128.028 167.545C127.757 167.041 127.621 166.459 127.621 165.799C127.621 165.139 127.753 164.561 128.017 164.065C128.281 163.568 128.649 163.188 129.123 162.924C129.604 162.652 130.155 162.517 130.776 162.517C131.381 162.517 131.916 162.648 132.382 162.912C132.847 163.176 133.204 163.541 133.453 164.006C133.709 164.464 133.837 164.984 133.837 165.566ZM132.743 165.345C132.743 164.942 132.653 164.596 132.475 164.309C132.296 164.014 132.052 163.793 131.742 163.646C131.439 163.49 131.101 163.413 130.729 163.413C130.194 163.413 129.736 163.584 129.355 163.925C128.983 164.266 128.77 164.74 128.715 165.345H132.743ZM146.009 162.505C146.506 162.505 146.948 162.61 147.336 162.819C147.724 163.021 148.03 163.327 148.256 163.739C148.481 164.15 148.593 164.651 148.593 165.24V169H147.545V165.392C147.545 164.755 147.386 164.27 147.068 163.937C146.758 163.595 146.335 163.424 145.799 163.424C145.249 163.424 144.81 163.603 144.484 163.96C144.158 164.309 143.995 164.817 143.995 165.485V169H142.948V165.392C142.948 164.755 142.789 164.27 142.47 163.937C142.16 163.595 141.737 163.424 141.202 163.424C140.651 163.424 140.212 163.603 139.886 163.96C139.56 164.309 139.397 164.817 139.397 165.485V169H138.338V162.621H139.397V163.541C139.607 163.207 139.886 162.951 140.236 162.773C140.593 162.594 140.984 162.505 141.411 162.505C141.947 162.505 142.42 162.625 142.831 162.866C143.243 163.106 143.549 163.459 143.751 163.925C143.929 163.475 144.224 163.126 144.635 162.877C145.047 162.629 145.505 162.505 146.009 162.505ZM153.113 169.105C152.515 169.105 151.972 168.969 151.483 168.697C151.002 168.426 150.622 168.042 150.342 167.545C150.071 167.041 149.935 166.459 149.935 165.799C149.935 165.147 150.075 164.573 150.354 164.076C150.641 163.572 151.029 163.188 151.518 162.924C152.007 162.652 152.554 162.517 153.159 162.517C153.764 162.517 154.312 162.652 154.8 162.924C155.289 163.188 155.673 163.568 155.953 164.065C156.24 164.561 156.383 165.139 156.383 165.799C156.383 166.459 156.236 167.041 155.941 167.545C155.654 168.042 155.262 168.426 154.765 168.697C154.269 168.969 153.718 169.105 153.113 169.105ZM153.113 168.174C153.493 168.174 153.85 168.084 154.183 167.906C154.517 167.727 154.785 167.46 154.987 167.103C155.196 166.746 155.301 166.311 155.301 165.799C155.301 165.287 155.2 164.852 154.998 164.495C154.797 164.138 154.533 163.875 154.207 163.704C153.881 163.525 153.528 163.436 153.148 163.436C152.76 163.436 152.403 163.525 152.077 163.704C151.758 163.875 151.502 164.138 151.308 164.495C151.114 164.852 151.017 165.287 151.017 165.799C151.017 166.319 151.111 166.757 151.297 167.114C151.491 167.471 151.747 167.739 152.065 167.917C152.383 168.088 152.732 168.174 153.113 168.174ZM158.835 163.657C159.022 163.293 159.285 163.009 159.627 162.808C159.976 162.606 160.399 162.505 160.896 162.505V163.599H160.616C159.429 163.599 158.835 164.243 158.835 165.531V169H157.776V162.621H158.835V163.657ZM167.938 165.566C167.938 165.768 167.927 165.981 167.903 166.206H162.805C162.844 166.835 163.057 167.328 163.445 167.685C163.841 168.034 164.318 168.208 164.877 168.208C165.335 168.208 165.715 168.104 166.018 167.894C166.328 167.677 166.545 167.39 166.67 167.033H167.81C167.64 167.646 167.298 168.146 166.786 168.534C166.274 168.915 165.638 169.105 164.877 169.105C164.272 169.105 163.729 168.969 163.247 168.697C162.774 168.426 162.402 168.042 162.13 167.545C161.858 167.041 161.723 166.459 161.723 165.799C161.723 165.139 161.855 164.561 162.118 164.065C162.382 163.568 162.751 163.188 163.224 162.924C163.705 162.652 164.256 162.517 164.877 162.517C165.482 162.517 166.018 162.648 166.483 162.912C166.949 163.176 167.306 163.541 167.554 164.006C167.81 164.464 167.938 164.984 167.938 165.566ZM166.844 165.345C166.844 164.942 166.755 164.596 166.577 164.309C166.398 164.014 166.154 163.793 165.843 163.646C165.541 163.49 165.203 163.413 164.831 163.413C164.295 163.413 163.837 163.584 163.457 163.925C163.085 164.266 162.871 164.74 162.817 165.345H166.844ZM173.732 163.494V167.254C173.732 167.564 173.798 167.786 173.93 167.917C174.062 168.042 174.291 168.104 174.616 168.104H175.396V169H174.442C173.852 169 173.41 168.864 173.115 168.593C172.82 168.321 172.673 167.875 172.673 167.254V163.494H171.846V162.621H172.673V161.015H173.732V162.621H175.396V163.494H173.732ZM179.846 162.505C180.327 162.505 180.762 162.61 181.15 162.819C181.538 163.021 181.84 163.327 182.057 163.739C182.282 164.15 182.395 164.651 182.395 165.24V169H181.347V165.392C181.347 164.755 181.188 164.27 180.87 163.937C180.552 163.595 180.117 163.424 179.566 163.424C179.008 163.424 178.562 163.599 178.228 163.948C177.902 164.297 177.739 164.806 177.739 165.473V169H176.68V160.386H177.739V163.529C177.949 163.203 178.236 162.951 178.6 162.773C178.973 162.594 179.388 162.505 179.846 162.505ZM183.73 165.787C183.73 165.136 183.861 164.565 184.125 164.076C184.389 163.58 184.75 163.196 185.208 162.924C185.673 162.652 186.189 162.517 186.756 162.517C187.315 162.517 187.8 162.637 188.211 162.877C188.622 163.118 188.929 163.421 189.13 163.785V162.621H190.201V169H189.13V167.813C188.921 168.185 188.607 168.496 188.188 168.744C187.776 168.984 187.295 169.105 186.744 169.105C186.178 169.105 185.666 168.965 185.208 168.686C184.75 168.406 184.389 168.014 184.125 167.51C183.861 167.006 183.73 166.431 183.73 165.787ZM189.13 165.799C189.13 165.318 189.033 164.899 188.839 164.542C188.645 164.185 188.382 163.913 188.048 163.727C187.722 163.533 187.361 163.436 186.965 163.436C186.57 163.436 186.209 163.529 185.883 163.715C185.557 163.902 185.297 164.173 185.103 164.53C184.909 164.887 184.812 165.306 184.812 165.787C184.812 166.276 184.909 166.703 185.103 167.068C185.297 167.425 185.557 167.7 185.883 167.894C186.209 168.08 186.57 168.174 186.965 168.174C187.361 168.174 187.722 168.08 188.048 167.894C188.382 167.7 188.645 167.425 188.839 167.068C189.033 166.703 189.13 166.28 189.13 165.799ZM195.099 162.505C195.875 162.505 196.504 162.742 196.985 163.215C197.466 163.681 197.707 164.356 197.707 165.24V169H196.659V165.392C196.659 164.755 196.5 164.27 196.182 163.937C195.864 163.595 195.429 163.424 194.878 163.424C194.319 163.424 193.873 163.599 193.539 163.948C193.214 164.297 193.051 164.806 193.051 165.473V169H191.991V162.621H193.051V163.529C193.26 163.203 193.543 162.951 193.9 162.773C194.265 162.594 194.665 162.505 195.099 162.505ZM202.144 165.787C202.144 165.136 202.276 164.565 202.54 164.076C202.804 163.58 203.165 163.196 203.623 162.924C204.088 162.652 204.604 162.517 205.171 162.517C205.729 162.517 206.214 162.637 206.626 162.877C207.037 163.118 207.344 163.421 207.545 163.785V162.621H208.616V169H207.545V167.813C207.336 168.185 207.022 168.496 206.602 168.744C206.191 168.984 205.71 169.105 205.159 169.105C204.593 169.105 204.08 168.965 203.623 168.686C203.165 168.406 202.804 168.014 202.54 167.51C202.276 167.006 202.144 166.431 202.144 165.787ZM207.545 165.799C207.545 165.318 207.448 164.899 207.254 164.542C207.06 164.185 206.796 163.913 206.463 163.727C206.137 163.533 205.776 163.436 205.38 163.436C204.985 163.436 204.624 163.529 204.298 163.715C203.972 163.902 203.712 164.173 203.518 164.53C203.324 164.887 203.227 165.306 203.227 165.787C203.227 166.276 203.324 166.703 203.518 167.068C203.712 167.425 203.972 167.7 204.298 167.894C204.624 168.08 204.985 168.174 205.38 168.174C205.776 168.174 206.137 168.08 206.463 167.894C206.796 167.7 207.06 167.425 207.254 167.068C207.448 166.703 207.545 166.28 207.545 165.799ZM221.18 162.505C221.677 162.505 222.119 162.61 222.507 162.819C222.895 163.021 223.202 163.327 223.427 163.739C223.652 164.15 223.764 164.651 223.764 165.24V169H222.717V165.392C222.717 164.755 222.558 164.27 222.239 163.937C221.929 163.595 221.506 163.424 220.971 163.424C220.42 163.424 219.981 163.603 219.655 163.96C219.329 164.309 219.167 164.817 219.167 165.485V169H218.119V165.392C218.119 164.755 217.96 164.27 217.642 163.937C217.331 163.595 216.908 163.424 216.373 163.424C215.822 163.424 215.384 163.603 215.058 163.96C214.732 164.309 214.569 164.817 214.569 165.485V169H213.509V162.621H214.569V163.541C214.778 163.207 215.058 162.951 215.407 162.773C215.764 162.594 216.156 162.505 216.582 162.505C217.118 162.505 217.591 162.625 218.003 162.866C218.414 163.106 218.72 163.459 218.922 163.925C219.101 163.475 219.395 163.126 219.807 162.877C220.218 162.629 220.676 162.505 221.18 162.505ZM226.049 161.585C225.847 161.585 225.676 161.515 225.537 161.376C225.397 161.236 225.327 161.065 225.327 160.864C225.327 160.662 225.397 160.491 225.537 160.351C225.676 160.212 225.847 160.142 226.049 160.142C226.243 160.142 226.406 160.212 226.538 160.351C226.677 160.491 226.747 160.662 226.747 160.864C226.747 161.065 226.677 161.236 226.538 161.376C226.406 161.515 226.243 161.585 226.049 161.585ZM226.561 162.621V169H225.502V162.621H226.561ZM231.474 162.505C232.25 162.505 232.879 162.742 233.36 163.215C233.841 163.681 234.082 164.356 234.082 165.24V169H233.034V165.392C233.034 164.755 232.875 164.27 232.557 163.937C232.239 163.595 231.804 163.424 231.253 163.424C230.694 163.424 230.248 163.599 229.914 163.948C229.589 164.297 229.426 164.806 229.426 165.473V169H228.366V162.621H229.426V163.529C229.635 163.203 229.918 162.951 230.275 162.773C230.64 162.594 231.04 162.505 231.474 162.505ZM241.469 162.621V169H240.41V168.057C240.208 168.383 239.925 168.639 239.56 168.825C239.203 169.004 238.807 169.093 238.373 169.093C237.876 169.093 237.43 168.992 237.034 168.79C236.638 168.581 236.324 168.271 236.091 167.859C235.866 167.448 235.754 166.947 235.754 166.358V162.621H236.801V166.218C236.801 166.847 236.96 167.332 237.279 167.673C237.597 168.007 238.031 168.174 238.582 168.174C239.149 168.174 239.595 167.999 239.921 167.65C240.247 167.301 240.41 166.792 240.41 166.125V162.621H241.469ZM244.549 163.494V167.254C244.549 167.564 244.615 167.786 244.747 167.917C244.879 168.042 245.108 168.104 245.434 168.104H246.214V169H245.259C244.67 169 244.227 168.864 243.933 168.593C243.638 168.321 243.49 167.875 243.49 167.254V163.494H242.664V162.621H243.49V161.015H244.549V162.621H246.214V163.494H244.549ZM253.317 165.566C253.317 165.768 253.306 165.981 253.282 166.206H248.184C248.223 166.835 248.436 167.328 248.824 167.685C249.22 168.034 249.697 168.208 250.256 168.208C250.714 168.208 251.094 168.104 251.397 167.894C251.707 167.677 251.924 167.39 252.049 167.033H253.189C253.019 167.646 252.677 168.146 252.165 168.534C251.653 168.915 251.017 169.105 250.256 169.105C249.651 169.105 249.108 168.969 248.626 168.697C248.153 168.426 247.781 168.042 247.509 167.545C247.237 167.041 247.102 166.459 247.102 165.799C247.102 165.139 247.234 164.561 247.497 164.065C247.761 163.568 248.13 163.188 248.603 162.924C249.084 162.652 249.635 162.517 250.256 162.517C250.861 162.517 251.397 162.648 251.862 162.912C252.328 163.176 252.685 163.541 252.933 164.006C253.189 164.464 253.317 164.984 253.317 165.566ZM252.223 165.345C252.223 164.942 252.134 164.596 251.955 164.309C251.777 164.014 251.533 163.793 251.222 163.646C250.92 163.49 250.582 163.413 250.209 163.413C249.674 163.413 249.216 163.584 248.836 163.925C248.463 164.266 248.25 164.74 248.196 165.345H252.223Z" fill="#37474F"/>
<g clip-path="url(#clip0_167_4588)">
<path d="M176.366 119.033C231.27 119.033 275.779 117.932 275.779 116.574C275.779 115.216 231.27 114.115 176.366 114.115C121.462 114.115 76.9528 115.216 76.9528 116.574C76.9528 117.932 121.462 119.033 176.366 119.033Z" fill="#B7B7B7"/>
<path d="M261.452 80.6353C261.266 81.2331 260.628 81.7177 260.027 81.7177H115.204C114.603 81.7177 114.242 81.2331 114.399 80.6353L124.333 42.577C124.423 42.275 124.604 42.0084 124.853 41.8144C125.101 41.6204 125.404 41.5086 125.719 41.4946H272.612C273.221 41.4946 273.562 41.9792 273.376 42.577L261.452 80.6353Z" fill="#8E3408"/>
<path d="M106.932 81.7163H251.755C252.358 81.7163 252.995 81.2331 253.182 80.6367L257.553 66.6815L265.1 42.577C265.288 41.9792 264.945 41.4946 264.336 41.4946H117.439C117.124 41.5088 116.821 41.6207 116.573 41.8147C116.325 42.0087 116.143 42.2751 116.054 42.577L112.839 54.8869L106.127 80.6367C105.972 81.2372 106.331 81.7163 106.932 81.7163Z" fill="#CF8A68"/>
<g style="mix-blend-mode:multiply" opacity="0.5">
<path d="M106.932 81.7163H251.755C252.358 81.7163 252.995 81.2331 253.182 80.6367L257.553 66.6815C235.855 56.859 213.19 52.6272 189.485 50.8995C164.525 49.0839 137.806 49.4931 112.854 54.8828L106.127 80.6367C105.972 81.2373 106.331 81.7163 106.932 81.7163Z" fill="#8E3408"/>
</g>
<path d="M169.322 55.6159C171.047 56.4539 172.899 56.8659 173.36 55.6159L174.266 49.5727L176.645 33.6678C170.914 34.0281 171.334 37.8647 170.336 42.151C169.174 47.1411 166.334 50.5 166.039 53.0587C165.987 53.5084 167.589 54.7765 169.322 55.6159Z" fill="#E85451"/>
<path d="M169.322 55.6159C171.047 56.4538 172.899 56.8658 173.36 55.6159L174.266 49.5726C174.137 46.9902 174.958 44.5992 175.219 42.0392L174.29 37.3981C173.518 38.1593 172.687 39.2529 172.315 40.5308C171.812 42.2612 171.851 45.845 171.412 47.6089C170.702 50.4301 170.91 53.3561 169.322 55.6159Z" fill="#960F0F"/>
<path d="M154.777 50.6886C154.884 50.9125 155.036 51.1117 155.224 51.2738C155.333 51.3758 155.452 51.4791 155.575 51.5797C155.954 51.8869 156.372 52.1746 156.62 52.3911C158.147 53.7151 159.825 54.7417 161.486 55.8227C163.627 57.2193 165.473 58.0573 167.471 58.6159C168.977 59.0349 170.569 59.2765 172.438 59.4637L171.994 55.9134L171.947 55.5419C167.654 50.6174 161.257 51.2054 155.758 48.8381C155.492 49.1384 155.228 49.366 155.03 49.5867C154.975 49.646 154.924 49.709 154.877 49.7752C154.779 49.9036 154.717 50.0567 154.699 50.2178C154.681 50.3789 154.708 50.5418 154.777 50.6886Z" fill="#FFBB95"/>
<path d="M146.192 50.9048C146.147 51.6031 149.801 50.7051 150.385 50.6939C149.474 51.3014 147.836 51.3433 147.138 52.0905C147.948 52.7344 149.893 52.1478 150.75 51.7567C150.406 52.2553 149.458 52.5053 149.38 53.1199C150.131 53.4928 151.594 52.6562 152.354 52.4369C153.227 52.1855 154.567 51.4956 155.408 51.6743L156.936 50.0082C156.348 49.8461 155.582 48.4788 155.129 47.9258C154.489 47.1409 154.15 46.7917 153.185 46.4691C152.73 46.3155 150.809 45.2121 151.507 46.4202C151.591 46.5578 151.697 46.6812 151.819 46.7861L151.832 46.7973C152.258 47.1744 152.895 47.4733 153.294 47.7121L153.305 47.7205C153.102 47.74 152.898 47.7638 152.691 47.7917C151.668 47.9314 150.602 48.1506 149.583 48.3504C148.564 48.5501 146.944 48.7903 146.206 49.6367C146.793 50.2833 148.968 49.4411 149.787 49.5305C149.293 49.7679 146.235 50.2051 146.192 50.9048Z" fill="#E07F4F"/>
<path d="M146.192 50.6298C146.147 51.3281 149.801 50.4287 150.385 50.4189C149.474 51.0264 147.836 51.0683 147.138 51.8155C147.948 52.4594 149.893 51.8714 150.75 51.4818C150.406 51.979 149.459 52.2304 149.38 52.8435C150.131 53.2178 151.594 52.3812 152.355 52.1619C153.227 51.9091 154.567 51.2206 155.408 51.3993L156.936 49.7332C156.348 49.5698 155.582 48.2039 155.129 47.6494C154.489 46.8659 154.151 46.5153 153.185 46.1927C152.731 46.0405 150.809 44.9357 151.508 46.1438C151.591 46.2821 151.696 46.4061 151.819 46.5111L151.832 46.5223C152.258 46.898 152.895 47.1969 153.294 47.4371H153.305C153.102 47.4566 152.898 47.4804 152.691 47.5083C151.668 47.648 150.602 47.8673 149.583 48.067C148.564 48.2667 146.944 48.5069 146.206 49.3533C146.793 49.9999 148.968 49.1578 149.787 49.2457C149.294 49.4929 146.235 49.9301 146.192 50.6298Z" fill="#FFBB95"/>
<path d="M152.982 50.3408C152.178 49.426 152.066 47.9666 153.379 47.5476C153.352 47.5107 153.323 47.4761 153.291 47.4442C153.088 47.4638 152.884 47.4875 152.677 47.5154L152.706 47.528C151.551 48.109 152.213 49.6118 152.982 50.3408Z" fill="#E07F4F"/>
<path d="M151.651 46.3212L151.791 46.4776L151.826 46.5195C152.252 46.8952 152.89 47.1941 153.288 47.4343C152.859 47.0027 151.692 46.3435 151.651 46.3212Z" fill="#E07F4F"/>
<path d="M149.886 48.4749C150.344 49.697 150.929 50.8701 150.927 52.2347C150.508 51.2291 150.321 49.3618 149.25 48.6104L149.886 48.4749Z" fill="#E07F4F"/>
<path d="M155.224 51.2736C155.333 51.3756 155.452 51.479 155.575 51.5795C155.954 51.8868 156.372 52.1745 156.62 52.391C158.147 53.715 159.825 54.7415 161.486 55.8225C163.627 57.2191 165.473 58.0571 167.471 58.6158C160.446 55.4328 156.345 50.7276 155.815 50.9664C155.611 51.055 155.414 51.1577 155.224 51.2736Z" fill="#E07F4F"/>
<path d="M166.956 70.5738C167.879 69.5164 168.685 68.362 169.359 67.1311C171.078 63.9565 171.761 60.3239 172.092 56.6493C172.598 51.0628 172.531 45.9553 172.309 40.5266C172.248 39.021 171.64 36.6467 172.403 35.4205C173.016 34.433 177.574 32.9833 177.574 32.9833C174.988 38.176 176.267 44.0279 176.991 49.6997C177.897 56.7862 178.389 64.0082 176.463 70.8098C176.216 71.6799 176.059 72.9704 175.549 73.6031C174.306 73.0193 172.144 73.2777 170.797 73.131C168.91 72.9271 166.988 72.543 165.131 72.4118C165.548 71.7609 166.422 71.1883 166.956 70.5738Z" fill="#E85451"/>
<path d="M162.365 75.6507C162.48 76.9412 163.81 77.7903 165.693 78.3476C169.418 79.4495 175.303 79.4104 178.211 79.3755C178.698 79.3755 179.102 79.3643 179.399 79.3643C182.831 79.3643 186.194 79.2526 189.602 79.0626C192.067 78.923 193.327 78.666 194.888 76.5794C198.439 71.8309 194.888 66.8924 193.958 62.8086L180.332 68.5348C179.677 68.4412 178.585 68.3155 177.235 68.1954L176.649 68.1437C171.237 67.6898 162.266 68.8016 159.877 70.5879C158.435 71.6675 162.171 73.444 162.365 75.6507Z" fill="#68352C"/>
<path d="M174.139 72.0892C174.66 71.0333 175.31 70.3503 176.235 69.652C176.74 69.2707 178.219 69.314 178.235 68.8406L178.815 79.0514C177.085 78.6924 174.376 78.793 172.33 78.6855C172.523 76.3944 173.136 74.1584 174.139 72.0892Z" fill="#492520"/>
<path d="M174.4 48.3004C174.493 48.6281 174.581 48.9517 174.663 49.271C178.846 65.1285 173.991 68.1857 175.096 68.1438C180.805 67.9273 184.409 72.613 189.536 74.1032C189.972 74.2309 190.415 74.3326 190.864 74.4077C191.978 74.5803 193.119 74.4697 194.179 74.086C195.24 73.7023 196.187 73.0579 196.932 72.2122C197.416 71.6759 193.125 63.6396 193.25 51.9917C193.31 46.4429 197.336 39.7153 194.58 34.6427C193.168 32.0435 187.55 31.8592 185.175 30.9556L179.045 32.4039C176.695 33.1776 176.955 32.0547 176.026 37.9737C175.252 42.908 173.187 43.9471 174.4 48.3004Z" fill="white"/>
<path d="M175.096 68.1437C180.804 67.9273 184.409 72.613 189.536 74.1032C192.549 71.1703 192.215 62.4217 191.276 59.3142L188.721 48.4051C188.645 51.4442 179.265 50.535 174.663 49.271C178.846 65.1284 173.991 68.1856 175.096 68.1437Z" fill="#EDEEF4"/>
<path d="M184.497 22.2334C184.53 22.2025 184.566 22.1753 184.605 22.1524L184.497 22.2334Z" fill="#FFBB95"/>
<path d="M184.81 20.0958L184.897 19.999C184.865 20.0286 184.836 20.061 184.81 20.0958Z" fill="#FFBB95"/>
<path d="M180.803 30.4765C180.753 31.1315 179.352 32.3396 178.377 32.7893C178.813 38.4373 189.326 35.2111 189.642 31.8759C188.915 31.4709 186.494 30.6036 185.977 29.3704C185.492 28.1656 185.194 26.894 185.092 25.5995C185.092 25.5701 185.092 25.5408 185.084 25.5129C184.992 24.4375 184.061 21.0688 184.805 20.0897L180.426 24.9263L179.437 26.017C180.005 27.5128 180.923 28.9877 180.803 30.4765Z" fill="#FFBB95"/>
<path d="M180.803 30.4765C181.192 30.6209 181.602 30.702 182.018 30.7167C183.351 30.7768 184.86 30.2698 185.977 29.3704C185.492 28.1656 185.194 26.894 185.092 25.5994L180.431 24.9263L179.443 26.017C180.005 27.5128 180.923 28.9877 180.803 30.4765Z" fill="#E07F4F"/>
<path d="M179.229 12.4502C180.196 11.5396 181.644 11.1429 182.909 11.1332L183.887 11.182C185.906 10.6346 187.984 13.1373 188.394 14.8356C188.879 16.8524 188.561 21.4613 187.911 23.471C186.599 27.5408 181.008 30.3565 177.656 28.7783C175.763 27.8858 174.981 21.5549 176.266 19.7574C178.886 16.094 176.633 14.8971 179.229 12.4502Z" fill="#FFBB95"/>
<path d="M181.052 12.9027C180.93 14.7658 186.213 14.8803 187.072 16.4222C187.685 17.5269 187.234 18.8928 187.253 20.0632C187.27 21.0157 186.436 24.5897 187.393 24.9696L188.931 23.5171C189.476 23.2014 191.045 20.4612 191.363 19.5828C191.922 18.0269 192.23 16.2993 191.88 14.7672C191.655 13.7462 191.095 12.83 190.288 12.1652C188.842 10.9613 183.809 9.58425 181.853 11.5507C181.316 12.0884 181.076 12.5298 181.052 12.9027Z" fill="#632118"/>
<path d="M178.18 10.3872C178.947 9.29087 180.656 8.81323 181.917 8.89004C183.061 8.95987 184.549 9.60512 186.026 10.6219L187.651 11.7252C186.974 12.0576 183.573 10.9375 182.777 11.2392C182.02 11.5426 181.337 12.004 180.772 12.5925C180.525 12.8621 180.366 13.2112 180.074 13.457C179.717 13.7587 179.281 13.8299 178.884 14.052C177.988 14.5534 177.916 15.1847 177.724 16.0967C177.7 16.2126 177.689 16.3411 177.66 16.4612C177.183 14.5995 176.939 12.1582 178.18 10.3872Z" fill="#632118"/>
<path d="M181.052 12.9026C180.93 14.7657 186.213 14.8802 187.072 16.4221C187.685 17.5268 187.234 18.8928 187.253 20.0631C187.27 21.0156 186.436 24.5896 187.393 24.9695L188.931 23.517C189.476 23.2014 191.045 20.4612 191.363 19.5827C191.922 18.0268 192.23 16.2992 191.88 14.7671C191.797 15.3258 191.6 15.8718 191.181 16.073C190.46 16.4207 190.251 15.133 189.963 14.714C189.58 14.1554 188.787 13.4571 188.088 13.3928C188.76 14.0339 189.569 15.3285 188.939 16.2364C188.643 16.0967 188.52 15.7014 188.311 15.4445C188.061 15.1484 187.755 14.9037 187.411 14.7238C186.703 14.3707 185.933 14.1551 185.144 14.0883C183.686 13.9305 182.227 13.823 181.052 12.9026Z" fill="#49150F"/>
<path d="M189.196 25.0115C188.578 25.9291 187.596 26.3467 187.002 25.9473C186.408 25.5478 186.427 24.4808 187.045 23.5632C187.663 22.6456 188.644 22.228 189.239 22.6288C189.835 23.0297 189.814 24.0953 189.196 25.0115Z" fill="#FFBB95"/>
<path d="M187.912 23.267L187.941 23.2335C187.952 23.2197 187.964 23.2066 187.977 23.1944C187.993 23.179 188.011 23.1609 188.032 23.1427C188.083 23.0981 188.14 23.0592 188.2 23.0268C188.282 22.9829 188.371 22.9527 188.462 22.9374C188.579 22.9208 188.698 22.9342 188.808 22.9765C188.87 23.0005 188.929 23.034 188.981 23.0757C189.035 23.1198 189.083 23.1721 189.121 23.2307C189.162 23.2883 189.194 23.3519 189.216 23.4192C189.24 23.485 189.256 23.5535 189.263 23.6232C189.272 23.6921 189.275 23.7618 189.272 23.8313V23.8829V23.9151V23.9374L189.258 24.0296C189.23 24.1623 189.188 24.2916 189.132 24.415C189.104 24.4723 189.079 24.531 189.045 24.5854L188.999 24.6664C188.984 24.6916 188.966 24.7167 188.95 24.7419C188.886 24.8392 188.816 24.9325 188.741 25.0212L188.63 25.1385C188.594 25.1734 188.559 25.2083 188.523 25.2405C188.486 25.2726 188.451 25.3019 188.418 25.3284L188.318 25.4025C188.263 25.4396 188.206 25.4736 188.147 25.5044C188.109 25.5252 188.07 25.5439 188.031 25.5603L187.989 25.5757C187.989 25.5757 188 25.5659 188.021 25.5435C188.042 25.5212 188.071 25.4933 188.107 25.4541C188.144 25.415 188.186 25.3648 188.233 25.3145L188.306 25.2223L188.383 25.119L188.462 25.0044L188.544 24.8801C188.597 24.7921 188.651 24.7014 188.701 24.6008C188.752 24.5002 188.798 24.4011 188.841 24.2977C188.88 24.1957 188.912 24.0912 188.936 23.9849L188.95 23.8955V23.8732C188.95 23.8732 188.95 23.8857 188.95 23.8732V23.8578V23.8173C188.954 23.7652 188.954 23.7129 188.95 23.6609C188.945 23.5637 188.92 23.4686 188.876 23.3815C188.856 23.3433 188.831 23.3076 188.802 23.2754C188.773 23.2455 188.74 23.2192 188.704 23.1972C188.634 23.1554 188.554 23.131 188.472 23.126C188.396 23.1211 188.319 23.1272 188.244 23.1441C188.183 23.1569 188.123 23.1752 188.065 23.1986C188.017 23.2181 187.977 23.2349 187.952 23.2475L187.912 23.267Z" fill="#E07F4F"/>
<path d="M185.754 30.6189L189.388 31.6245C193.56 33.2111 197.914 33.1231 197.355 39.2766C197.121 41.8451 196.19 44.3171 195.817 46.8618C195.323 50.0245 195.063 53.2194 195.04 56.4203C195.04 63.141 196.334 69.1954 198.56 75.4872C198.933 76.5417 200.062 78.4132 199.221 79.057C198.522 79.5933 195.911 79.2498 195.04 79.2079C192.372 79.0766 189.729 79.1813 187.005 79.0263C187.736 76.071 188.123 71.173 187.634 68.1437C186.616 61.8351 184.187 31.4289 185.754 30.6189Z" fill="#E85451"/>
<path d="M189.934 47.7948L193.561 33.0994C198.322 34.3759 197.51 38.0895 197.046 42.8479C196.798 45.38 196.652 53.7067 195.547 56.0335C195.16 56.8506 194.618 58.0098 193.771 58.4315C192.094 59.2695 192.031 57.993 191.758 56.6159C191.244 54.0028 189.389 50.4135 189.934 47.7948Z" fill="#E85451"/>
<path d="M186.242 48.3088C186.297 46.9862 186.743 45.6216 186.609 44.327L192.245 44.7669C193.223 46.6538 194.303 48.5197 194.667 50.616C195.018 52.6495 195.423 56.0252 192.98 57.2165C187.789 59.743 186.126 51.0881 186.242 48.3088Z" fill="#960F0F"/>
<path d="M192.987 37.7822C192.933 39.5769 192.747 41.3981 192.658 43.1956C192.574 44.8799 192.722 47.0433 192.167 48.5335L190.071 46.2123C191.613 43.697 191.773 40.359 192.987 37.7822Z" fill="#960F0F"/>
<path d="M188.424 20.3677L191.049 21.0548L186.909 30.9179L184.171 30.4346L188.424 20.3677Z" fill="#171F26"/>
<path d="M184.054 29.8675C183.952 30.1105 184.005 30.3633 184.171 30.4346C184.338 30.5044 184.556 30.3647 184.659 30.1231L188.542 20.9346C188.644 20.6916 188.592 20.4374 188.424 20.3676C188.258 20.2978 188.04 20.4374 187.937 20.679L184.054 29.8675Z" fill="#334756"/>
<path d="M188.402 31.5393C187.511 31.8759 187.374 32.1943 186.471 32.5016C186.742 39.5113 185.724 52.7849 188.949 55.6592C190.637 57.1648 193.059 55.5195 193.477 52.912C193.886 50.3674 193.117 47.6411 192.408 45.1635C192.136 44.2096 190.008 36.711 188.402 31.5393Z" fill="#FFBB95"/>
<path d="M188.88 54.1243V54.1899C189.167 55.0028 190.639 55.5544 191.152 54.5866C190.484 54.8868 189.333 54.6075 188.88 54.1243Z" fill="#E07F4F"/>
<path d="M187.007 29.1008C187.101 29.0116 187.213 28.9431 187.335 28.9001C187.457 28.857 187.587 28.8402 187.716 28.8508C187.802 28.854 187.887 28.8629 187.972 28.8773C188.053 28.8899 188.13 28.9053 188.205 28.9178C188.464 28.9625 188.689 28.9849 188.834 28.8117C188.899 28.7303 188.942 28.6344 188.961 28.5324C188.975 28.4765 188.989 28.4192 189.003 28.3592C189.49 26.186 189.583 21.8551 188.454 21.8816C188.282 21.9081 188.222 22.1609 188.215 22.5199C188.215 22.5939 188.215 22.6721 188.215 22.7531C188.215 22.8844 188.229 23.0324 188.241 23.1721C188.29 23.7782 188.381 24.4291 188.338 24.6902C188.332 24.7289 188.323 24.7671 188.313 24.8048C188.277 24.9409 188.23 25.074 188.173 25.2028C188.151 25.2559 188.127 25.3089 188.102 25.362C187.984 25.6097 187.852 25.8499 187.705 26.0813C187.689 26.1064 187.674 26.1316 187.657 26.1553L187.629 26.1972V26.2056C187.618 26.2223 187.605 26.2377 187.596 26.2545C187.558 26.3089 187.523 26.3578 187.491 26.3941L187.007 29.1008Z" fill="#FFBB95"/>
<path d="M186.493 32.5406C186.589 32.514 188.17 32.711 188.752 32.5769C188.77 32.5769 188.391 31.2599 188.63 30.1356C188.732 29.6509 188.999 28.9275 189.005 28.3605C189.005 28.2829 188.999 28.2054 188.988 28.1286C188.983 28.0927 188.976 28.0572 188.965 28.0225C188.9 27.8132 188.797 27.6176 188.661 27.4457C188.395 27.0867 188.035 26.7404 187.81 26.4052C187.799 26.3903 187.789 26.3749 187.78 26.3591C187.74 26.2962 187.701 26.2264 187.661 26.151C187.661 26.1384 187.647 26.1244 187.642 26.1105C187.636 26.1012 187.631 26.0913 187.626 26.0811C187.583 25.9959 187.541 25.9066 187.499 25.8172C187.39 25.5399 187.249 25.276 187.08 25.0309C186.417 24.2921 186.83 27.035 186.841 27.366C186.862 27.9471 186.212 28.4834 186.002 29.0853C185.802 29.7172 185.79 30.3933 185.966 31.0322C186.09 31.5515 186.267 32.0568 186.493 32.5406Z" fill="#FFBB95"/>
<path d="M187.597 27.2027L188.106 28.637L188.205 28.9164L188.547 29.8801C188.669 29.5308 188.765 29.1733 188.834 28.8102C188.886 28.5574 188.93 28.2921 188.964 28.0225C189.04 27.5056 189.044 26.9806 188.977 26.4625C188.957 26.3315 188.924 26.2028 188.879 26.0784C188.837 25.9695 188.766 25.7851 188.672 25.5617C188.578 25.3382 188.454 25.0672 188.317 24.8019C188.212 24.5957 188.096 24.3953 187.97 24.2013C187.897 24.0887 187.817 23.9809 187.73 23.8787C187.688 23.8294 187.646 23.7828 187.604 23.739C187.408 23.5491 187.207 23.4597 187.018 23.5254C186.687 23.6985 187.298 24.8047 187.492 25.341C187.505 25.3773 187.519 25.4164 187.529 25.4569C187.581 25.6601 187.613 25.8677 187.626 26.077V26.1413C187.626 26.1566 187.626 26.1734 187.626 26.1887C187.626 26.2041 187.626 26.2069 187.626 26.2153C187.647 26.5446 187.637 26.8752 187.597 27.2027Z" fill="#FFBB95"/>
<path d="M187.75 29.2363C187.82 29.1329 187.889 29.0128 187.972 28.8773C188.017 28.8019 188.061 28.7209 188.112 28.6371C188.322 28.2519 188.509 27.854 188.671 27.4458C188.799 27.1278 188.905 26.8011 188.988 26.4681C189.064 26.1838 189.092 25.8888 189.072 25.5952C189.033 25.2517 188.829 24.0212 188.478 23.2112C188.412 23.0545 188.329 22.9052 188.232 22.7657C188.164 22.6628 188.073 22.5776 187.966 22.5171C187.894 22.4778 187.81 22.4655 187.729 22.4821C187.558 22.5366 187.568 22.8914 187.634 23.3117C187.663 23.4975 187.702 23.6958 187.743 23.8872C187.768 24.0073 187.793 24.126 187.815 24.2349C187.848 24.382 187.873 24.5307 187.891 24.6804C187.924 25.038 187.818 25.5645 187.695 25.9863L187.655 26.126C187.655 26.1385 187.646 26.1497 187.643 26.1609C187.641 26.172 187.643 26.1818 187.634 26.1902C187.624 26.1986 187.617 26.2405 187.608 26.2656C187.578 26.3578 187.546 26.4388 187.516 26.5044L187.73 28.8648L187.75 29.2363Z" fill="#FFBB95"/>
<path d="M188.672 25.5603C188.822 24.9877 188.693 24.3159 188.605 23.7447C188.573 23.5611 188.526 23.3803 188.465 23.2042C188.388 22.9765 188.297 22.7475 188.216 22.5254C188.216 22.5995 188.216 22.6777 188.216 22.7587C188.149 22.6559 188.058 22.5706 187.951 22.5101C188.059 22.7256 188.157 22.9466 188.243 23.1721C188.537 23.9335 188.683 24.7442 188.672 25.5603Z" fill="#E07F4F"/>
<path d="M188.18 26.031C188.224 25.7535 188.224 25.4706 188.18 25.1931C188.135 24.8593 188.05 24.5255 187.979 24.2154C187.979 24.207 187.979 24.1986 187.979 24.1903C187.891 23.8806 187.774 23.5799 187.629 23.2922C187.659 23.478 187.698 23.6763 187.738 23.8676C187.696 23.8183 187.654 23.7717 187.612 23.728C187.685 23.8844 187.752 24.0464 187.811 24.2098C187.946 24.578 188.047 24.9575 188.114 25.3439C188.15 25.5714 188.172 25.8009 188.18 26.031Z" fill="#E07F4F"/>
<path d="M187.912 27.5336C187.935 27.1378 187.893 26.7409 187.786 26.3591C187.764 26.2641 187.739 26.1691 187.715 26.0797C187.705 26.0462 187.697 26.0127 187.688 25.9792C187.669 25.9079 187.65 25.8395 187.632 25.7669C187.605 25.6647 187.572 25.564 187.534 25.4652C187.587 25.6684 187.619 25.876 187.632 26.0853C187.589 26.0001 187.547 25.9107 187.505 25.8214C187.548 25.9387 187.589 26.0588 187.627 26.1789L187.635 26.2054C187.635 26.2054 187.635 26.2166 187.635 26.2236C187.77 26.6503 187.862 27.089 187.912 27.5336Z" fill="#E07F4F"/>
<path d="M111.914 86.3824H102.707C103.361 91.374 105.428 108.836 99.1682 113.836C101.801 113.976 104.408 114.103 106.995 113.913V114.266C109.774 114.525 112.569 114.381 115.397 114.237C108.959 109.093 111.334 90.7553 111.914 86.3824Z" fill="#AF7050"/>
<path d="M121.825 111.86V115.472C121.825 116.03 121.449 116.474 120.986 116.474H96.162C95.6993 116.474 95.3234 116.025 95.3234 115.472V111.86C95.3234 111.301 95.6993 110.857 96.162 110.857H120.986C121.449 110.857 121.825 111.305 121.825 111.86Z" fill="#AF7050"/>
<path d="M121.825 111.86V115.472C121.825 116.03 121.449 116.474 120.986 116.474H100.355C99.8923 116.474 99.5164 116.025 99.5164 115.472V111.86C99.5164 111.301 99.8923 110.857 100.355 110.857H120.986C121.449 110.857 121.825 111.305 121.825 111.86Z" fill="#8E3408"/>
<path d="M113.921 86.3824H104.714C105.368 91.374 107.437 108.836 101.175 113.836C103.809 113.976 106.415 114.103 109.002 113.913V114.266C111.781 114.525 114.578 114.381 117.405 114.237C110.966 109.093 113.341 90.7553 113.921 86.3824Z" fill="#8E3408"/>
<path d="M262.439 81.3672H91.8164V89.3923H262.439V81.3672Z" fill="#8E3408"/>
<path d="M252.45 86.3824H243.243C243.897 91.374 245.965 108.836 239.704 113.836C242.338 113.976 244.944 114.103 247.531 113.913V114.266C250.31 114.525 253.105 114.381 255.933 114.237C249.494 109.093 251.87 90.7553 252.45 86.3824Z" fill="#AF7050"/>
<path d="M262.36 111.86V115.472C262.36 116.03 261.985 116.474 261.521 116.474H236.698C236.234 116.474 235.859 116.025 235.859 115.472V111.86C235.859 111.301 236.234 110.857 236.698 110.857H261.521C261.989 110.857 262.36 111.305 262.36 111.86Z" fill="#AF7050"/>
<path d="M262.36 111.86V115.472C262.36 116.03 261.985 116.474 261.521 116.474H240.891C240.427 116.474 240.053 116.025 240.053 115.472V111.86C240.053 111.301 240.427 110.857 240.891 110.857H261.521C261.989 110.857 262.36 111.305 262.36 111.86Z" fill="#8E3408"/>
<path d="M254.457 86.3824H245.25C245.904 91.374 247.972 108.836 241.711 113.836C244.345 113.976 246.951 114.103 249.538 113.913V114.266C252.317 114.525 255.114 114.381 257.94 114.237C251.506 109.093 253.882 90.7553 254.457 86.3824Z" fill="#8E3408"/>
<path d="M262.441 81.3672H229.146V89.3923H262.441V81.3672Z" fill="#B85524"/>
<path d="M265.015 82.7818V80.4857C265.015 79.1589 264.399 78.0835 263.637 78.0835H90.6199C89.8582 78.0835 89.2404 79.1589 89.2404 80.4857V82.7818H265.015Z" fill="#CF8A68"/>
<path d="M265.015 82.7818V80.4857C265.015 79.1589 264.543 78.0835 263.958 78.0835H235.338C234.754 78.0835 234.28 79.1589 234.28 80.4857V82.7818H265.015Z" fill="#8E3408"/>
<path d="M153.294 104.082L156.564 104.385C155.958 107.541 153.621 115.483 151.467 114.344C150.392 113.85 153.452 106.247 153.294 104.082Z" fill="#FFBB95"/>
<path d="M150.432 110.902C150.915 110.421 151.317 109.226 152.047 109.152C153.063 109.044 153.246 110.365 153.206 110.861L154.659 110.815C154.637 111.058 154.695 113.544 154.781 114.167C154.993 115.716 155.046 116.178 153.319 115.937C151.24 115.648 146.689 114.959 144.91 113.805C145.134 112.726 149.584 111.745 150.432 110.902Z" fill="#2B2221"/>
<path d="M154.477 111.247H154.455C154.461 111.182 154.468 111.171 154.477 111.247Z" fill="#2B2221"/>
<path d="M152.336 106.785C153.716 97.3601 156.124 65.1285 161.393 71.2765C161.393 71.2765 163.645 74.9595 164.231 75.9553C167.603 81.6815 162.527 91.1185 160.205 96.8433C159.121 99.5151 157.27 105.198 155.935 108.296L152.336 106.785Z" fill="#68352C"/>
<path d="M177.509 105.314L180.76 104.85C180.899 108.062 180.48 116.328 178.117 115.72C176.955 115.488 178.164 107.382 177.509 105.314Z" fill="#FFBB95"/>
<path d="M176.311 112.611C176.669 112.032 176.783 110.777 177.474 110.534C178.438 110.194 178.923 111.437 179 111.931L180.398 111.55C180.433 111.79 181.067 114.195 181.295 114.783C181.863 116.241 182.022 116.678 180.285 116.844C178.188 117.044 173.609 117.427 171.61 116.722C171.58 115.614 175.681 113.628 176.311 112.611Z" fill="#2B2221"/>
<path d="M180.323 112.008H180.301C180.293 111.949 180.297 111.936 180.323 112.008Z" fill="#2B2221"/>
<path d="M181.081 108.177H177.168C177.011 99.3222 172.192 64.7792 180.437 68.2596C180.437 68.2596 183.276 69.1465 184.669 71.7764C187.902 77.8811 186.346 88.3963 184.514 95.2957C183.652 98.5471 181.728 105.198 181.081 108.177Z" fill="#68352C"/>
</g>
<circle cx="35" cy="110" r="19" fill="#E85451"/>
<path d="M32.597 104V101.42H37.417V116H34.537V104H32.597Z" fill="white"/>
<defs>
<clipPath id="clip0_167_4588">
<rect width="209.653" height="121" fill="white" transform="translate(74)"/>
</clipPath>
</defs>
</svg>
