<svg width="327" height="187" viewBox="0 0 327 187" fill="none" xmlns="http://www.w3.org/2000/svg">
<rect y="114" width="327" height="73" rx="8" fill="#F2F2F2"/>
<path d="M95.2098 142.945V151H94.1506V144.994L91.4734 151H90.7284L88.0396 144.982V151H86.9804V142.945H88.1211L91.1009 149.603L94.0808 142.945H95.2098ZM99.7882 151.105C99.1907 151.105 98.6475 150.969 98.1586 150.697C97.6775 150.426 97.2972 150.042 97.0179 149.545C96.7463 149.041 96.6105 148.459 96.6105 147.799C96.6105 147.147 96.7501 146.573 97.0295 146.076C97.3166 145.572 97.7046 145.188 98.1935 144.924C98.6824 144.652 99.2295 144.517 99.8347 144.517C100.44 144.517 100.987 144.652 101.476 144.924C101.965 145.188 102.349 145.568 102.628 146.065C102.915 146.561 103.059 147.139 103.059 147.799C103.059 148.459 102.912 149.041 102.617 149.545C102.33 150.042 101.938 150.426 101.441 150.697C100.944 150.969 100.393 151.105 99.7882 151.105ZM99.7882 150.174C100.168 150.174 100.525 150.084 100.859 149.906C101.193 149.727 101.46 149.46 101.662 149.103C101.872 148.746 101.976 148.311 101.976 147.799C101.976 147.287 101.876 146.852 101.674 146.495C101.472 146.138 101.208 145.875 100.882 145.704C100.556 145.525 100.203 145.436 99.8231 145.436C99.4351 145.436 99.0781 145.525 98.7522 145.704C98.4341 145.875 98.178 146.138 97.984 146.495C97.79 146.852 97.693 147.287 97.693 147.799C97.693 148.319 97.7861 148.757 97.9723 149.114C98.1663 149.471 98.4224 149.739 98.7406 149.917C99.0587 150.088 99.4079 150.174 99.7882 150.174ZM106.826 150.022L108.805 144.621H109.934L107.432 151H106.198L103.695 144.621H104.836L106.826 150.022ZM116.796 147.566C116.796 147.768 116.785 147.981 116.762 148.206H111.663C111.702 148.835 111.915 149.328 112.303 149.685C112.699 150.034 113.176 150.208 113.735 150.208C114.193 150.208 114.573 150.104 114.876 149.894C115.186 149.677 115.404 149.39 115.528 149.033H116.668C116.498 149.646 116.156 150.146 115.644 150.534C115.132 150.915 114.496 151.105 113.735 151.105C113.13 151.105 112.587 150.969 112.106 150.697C111.632 150.426 111.26 150.042 110.988 149.545C110.717 149.041 110.581 148.459 110.581 147.799C110.581 147.139 110.713 146.561 110.976 146.065C111.24 145.568 111.609 145.188 112.082 144.924C112.563 144.652 113.114 144.517 113.735 144.517C114.34 144.517 114.876 144.648 115.341 144.912C115.807 145.176 116.164 145.541 116.412 146.006C116.668 146.464 116.796 146.984 116.796 147.566ZM115.702 147.345C115.702 146.942 115.613 146.596 115.435 146.309C115.256 146.014 115.012 145.793 114.701 145.646C114.399 145.49 114.061 145.413 113.689 145.413C113.153 145.413 112.695 145.584 112.315 145.925C111.943 146.266 111.729 146.74 111.675 147.345H115.702ZM121.845 143.585C121.643 143.585 121.472 143.515 121.333 143.376C121.193 143.236 121.123 143.065 121.123 142.864C121.123 142.662 121.193 142.491 121.333 142.351C121.472 142.212 121.643 142.142 121.845 142.142C122.039 142.142 122.202 142.212 122.334 142.351C122.474 142.491 122.543 142.662 122.543 142.864C122.543 143.065 122.474 143.236 122.334 143.376C122.202 143.515 122.039 143.585 121.845 143.585ZM122.357 144.621V151H121.298V144.621H122.357ZM127.27 144.505C128.046 144.505 128.675 144.742 129.156 145.215C129.637 145.681 129.878 146.356 129.878 147.24V151H128.83V147.392C128.83 146.755 128.671 146.27 128.353 145.937C128.035 145.595 127.6 145.424 127.049 145.424C126.49 145.424 126.044 145.599 125.711 145.948C125.385 146.297 125.222 146.806 125.222 147.473V151H124.162V144.621H125.222V145.529C125.431 145.203 125.714 144.951 126.071 144.773C126.436 144.594 126.836 144.505 127.27 144.505ZM136.003 145.494V149.254C136.003 149.564 136.069 149.786 136.201 149.917C136.333 150.042 136.562 150.104 136.888 150.104H137.668V151H136.713C136.123 151 135.681 150.864 135.386 150.593C135.091 150.321 134.944 149.875 134.944 149.254V145.494H134.118V144.621H134.944V143.015H136.003V144.621H137.668V145.494H136.003ZM141.733 151.105C141.136 151.105 140.592 150.969 140.103 150.697C139.622 150.426 139.242 150.042 138.963 149.545C138.691 149.041 138.555 148.459 138.555 147.799C138.555 147.147 138.695 146.573 138.974 146.076C139.262 145.572 139.65 145.188 140.138 144.924C140.627 144.652 141.174 144.517 141.78 144.517C142.385 144.517 142.932 144.652 143.421 144.924C143.91 145.188 144.294 145.568 144.573 146.065C144.86 146.561 145.004 147.139 145.004 147.799C145.004 148.459 144.856 149.041 144.562 149.545C144.274 150.042 143.883 150.426 143.386 150.697C142.889 150.969 142.338 151.105 141.733 151.105ZM141.733 150.174C142.113 150.174 142.47 150.084 142.804 149.906C143.138 149.727 143.405 149.46 143.607 149.103C143.817 148.746 143.921 148.311 143.921 147.799C143.921 147.287 143.821 146.852 143.619 146.495C143.417 146.138 143.153 145.875 142.827 145.704C142.501 145.525 142.148 145.436 141.768 145.436C141.38 145.436 141.023 145.525 140.697 145.704C140.379 145.875 140.123 146.138 139.929 146.495C139.735 146.852 139.638 147.287 139.638 147.799C139.638 148.319 139.731 148.757 139.917 149.114C140.111 149.471 140.367 149.739 140.685 149.917C141.004 150.088 141.353 150.174 141.733 150.174ZM154.994 144.621L151.153 154.003H150.059L151.316 150.93L148.743 144.621H149.919L151.921 149.789L153.9 144.621H154.994ZM158.841 151.105C158.243 151.105 157.7 150.969 157.211 150.697C156.73 150.426 156.35 150.042 156.07 149.545C155.799 149.041 155.663 148.459 155.663 147.799C155.663 147.147 155.803 146.573 156.082 146.076C156.369 145.572 156.757 145.188 157.246 144.924C157.735 144.652 158.282 144.517 158.887 144.517C159.493 144.517 160.04 144.652 160.529 144.924C161.017 145.188 161.402 145.568 161.681 146.065C161.968 146.561 162.112 147.139 162.112 147.799C162.112 148.459 161.964 149.041 161.669 149.545C161.382 150.042 160.99 150.426 160.494 150.697C159.997 150.969 159.446 151.105 158.841 151.105ZM158.841 150.174C159.221 150.174 159.578 150.084 159.912 149.906C160.245 149.727 160.513 149.46 160.715 149.103C160.924 148.746 161.029 148.311 161.029 147.799C161.029 147.287 160.928 146.852 160.726 146.495C160.525 146.138 160.261 145.875 159.935 145.704C159.609 145.525 159.256 145.436 158.876 145.436C158.488 145.436 158.131 145.525 157.805 145.704C157.487 145.875 157.231 146.138 157.037 146.495C156.843 146.852 156.746 147.287 156.746 147.799C156.746 148.319 156.839 148.757 157.025 149.114C157.219 149.471 157.475 149.739 157.793 149.917C158.111 150.088 158.46 150.174 158.841 150.174ZM169.161 144.621V151H168.102V150.057C167.9 150.383 167.617 150.639 167.252 150.825C166.895 151.004 166.5 151.093 166.065 151.093C165.568 151.093 165.122 150.992 164.726 150.79C164.331 150.581 164.016 150.271 163.784 149.859C163.559 149.448 163.446 148.947 163.446 148.358V144.621H164.494V148.218C164.494 148.847 164.653 149.332 164.971 149.673C165.289 150.007 165.724 150.174 166.275 150.174C166.841 150.174 167.287 149.999 167.613 149.65C167.939 149.301 168.102 148.792 168.102 148.125V144.621H169.161ZM172.009 145.657C172.195 145.293 172.459 145.009 172.801 144.808C173.15 144.606 173.573 144.505 174.069 144.505V145.599H173.79C172.603 145.599 172.009 146.243 172.009 147.531V151H170.95V144.621H172.009V145.657ZM181.503 144.505C182.279 144.505 182.908 144.742 183.389 145.215C183.87 145.681 184.111 146.356 184.111 147.24V151H183.063V147.392C183.063 146.755 182.904 146.27 182.586 145.937C182.268 145.595 181.833 145.424 181.282 145.424C180.723 145.424 180.277 145.599 179.943 145.948C179.617 146.297 179.455 146.806 179.455 147.473V151H178.395V144.621H179.455V145.529C179.664 145.203 179.947 144.951 180.304 144.773C180.669 144.594 181.069 144.505 181.503 144.505ZM191.661 147.566C191.661 147.768 191.649 147.981 191.626 148.206H186.528C186.566 148.835 186.78 149.328 187.168 149.685C187.564 150.034 188.041 150.208 188.599 150.208C189.057 150.208 189.438 150.104 189.74 149.894C190.051 149.677 190.268 149.39 190.392 149.033H191.533C191.362 149.646 191.021 150.146 190.508 150.534C189.996 150.915 189.36 151.105 188.599 151.105C187.994 151.105 187.451 150.969 186.97 150.697C186.497 150.426 186.124 150.042 185.852 149.545C185.581 149.041 185.445 148.459 185.445 147.799C185.445 147.139 185.577 146.561 185.841 146.065C186.105 145.568 186.473 145.188 186.947 144.924C187.428 144.652 187.979 144.517 188.599 144.517C189.205 144.517 189.74 144.648 190.206 144.912C190.671 145.176 191.028 145.541 191.277 146.006C191.533 146.464 191.661 146.984 191.661 147.566ZM190.567 147.345C190.567 146.942 190.477 146.596 190.299 146.309C190.12 146.014 189.876 145.793 189.566 145.646C189.263 145.49 188.925 145.413 188.553 145.413C188.017 145.413 187.56 145.584 187.179 145.925C186.807 146.266 186.594 146.74 186.539 147.345H190.567ZM201.556 144.621L199.566 151H198.472L196.935 145.937L195.399 151H194.304L192.302 144.621H193.385L194.852 149.976L196.435 144.621H197.517L199.065 149.987L200.509 144.621H201.556ZM208.877 144.505C209.358 144.505 209.792 144.61 210.18 144.819C210.568 145.021 210.871 145.327 211.088 145.739C211.313 146.15 211.426 146.651 211.426 147.24V151H210.378V147.392C210.378 146.755 210.219 146.27 209.901 145.937C209.583 145.595 209.148 145.424 208.597 145.424C208.039 145.424 207.592 145.599 207.259 145.948C206.933 146.297 206.77 146.806 206.77 147.473V151H205.711V142.386H206.77V145.529C206.979 145.203 207.267 144.951 207.631 144.773C208.004 144.594 208.419 144.505 208.877 144.505ZM215.938 151.105C215.341 151.105 214.797 150.969 214.308 150.697C213.827 150.426 213.447 150.042 213.168 149.545C212.896 149.041 212.76 148.459 212.76 147.799C212.76 147.147 212.9 146.573 213.179 146.076C213.467 145.572 213.855 145.188 214.343 144.924C214.832 144.652 215.379 144.517 215.985 144.517C216.59 144.517 217.137 144.652 217.626 144.924C218.115 145.188 218.499 145.568 218.778 146.065C219.065 146.561 219.209 147.139 219.209 147.799C219.209 148.459 219.061 149.041 218.767 149.545C218.479 150.042 218.088 150.426 217.591 150.697C217.094 150.969 216.543 151.105 215.938 151.105ZM215.938 150.174C216.318 150.174 216.675 150.084 217.009 149.906C217.343 149.727 217.61 149.46 217.812 149.103C218.022 148.746 218.126 148.311 218.126 147.799C218.126 147.287 218.026 146.852 217.824 146.495C217.622 146.138 217.358 145.875 217.032 145.704C216.706 145.525 216.353 145.436 215.973 145.436C215.585 145.436 215.228 145.525 214.902 145.704C214.584 145.875 214.328 146.138 214.134 146.495C213.94 146.852 213.843 147.287 213.843 147.799C213.843 148.319 213.936 148.757 214.122 149.114C214.316 149.471 214.572 149.739 214.89 149.917C215.209 150.088 215.558 150.174 215.938 150.174ZM228.272 144.505C228.769 144.505 229.211 144.61 229.599 144.819C229.987 145.021 230.294 145.327 230.519 145.739C230.744 146.15 230.856 146.651 230.856 147.24V151H229.809V147.392C229.809 146.755 229.65 146.27 229.332 145.937C229.021 145.595 228.598 145.424 228.063 145.424C227.512 145.424 227.073 145.603 226.748 145.96C226.422 146.309 226.259 146.817 226.259 147.485V151H225.211V147.392C225.211 146.755 225.052 146.27 224.734 145.937C224.423 145.595 224.001 145.424 223.465 145.424C222.914 145.424 222.476 145.603 222.15 145.96C221.824 146.309 221.661 146.817 221.661 147.485V151H220.602V144.621H221.661V145.541C221.87 145.207 222.15 144.951 222.499 144.773C222.856 144.594 223.248 144.505 223.675 144.505C224.21 144.505 224.683 144.625 225.095 144.866C225.506 145.106 225.812 145.459 226.014 145.925C226.193 145.475 226.488 145.126 226.899 144.877C227.31 144.629 227.768 144.505 228.272 144.505ZM238.414 147.566C238.414 147.768 238.402 147.981 238.379 148.206H233.281C233.32 148.835 233.533 149.328 233.921 149.685C234.317 150.034 234.794 150.208 235.353 150.208C235.811 150.208 236.191 150.104 236.493 149.894C236.804 149.677 237.021 149.39 237.145 149.033H238.286C238.115 149.646 237.774 150.146 237.262 150.534C236.75 150.915 236.113 151.105 235.353 151.105C234.747 151.105 234.204 150.969 233.723 150.697C233.25 150.426 232.877 150.042 232.606 149.545C232.334 149.041 232.198 148.459 232.198 147.799C232.198 147.139 232.33 146.561 232.594 146.065C232.858 145.568 233.226 145.188 233.7 144.924C234.181 144.652 234.732 144.517 235.353 144.517C235.958 144.517 236.493 144.648 236.959 144.912C237.425 145.176 237.782 145.541 238.03 146.006C238.286 146.464 238.414 146.984 238.414 147.566ZM237.32 147.345C237.32 146.942 237.231 146.596 237.052 146.309C236.874 146.014 236.629 145.793 236.319 145.646C236.016 145.49 235.679 145.413 235.306 145.413C234.771 145.413 234.313 145.584 233.933 145.925C233.56 146.266 233.347 146.74 233.292 147.345H237.32Z" fill="#37474F"/>
<g clip-path="url(#clip0_502_30)">
<path d="M120.192 16.438H61.5396C61.8196 15.4087 63.3635 11.8971 71.2117 13.2215C70.5517 12.6805 70.0426 11.9782 69.7337 11.1827C69.4248 10.3871 69.3265 9.52534 69.4483 8.68068C69.5422 8.17363 69.7784 7.70377 70.1294 7.32599C70.471 7.01491 70.8765 6.78242 71.3176 6.64486C74.413 5.53235 79.8317 9.7932 79.8317 9.7932C73.1945 -0.620521 91.2747 -4.99489 91.3958 8.19633C91.3958 8.19633 94.0446 3.45869 96.9432 4.76797C98.1238 5.44153 97.3973 7.46979 96.8676 8.36282C105.336 4.24577 113.048 6.76595 109.453 11.4657C117.778 11.6398 120.192 16.438 120.192 16.438Z" fill="white"/>
<path d="M223.648 38.1661H205.159C204.471 35.7821 204.887 33.0803 212.44 35.2524C214.264 31.8543 217.223 32.4673 220.008 36.2665C224.821 32.4976 228.106 36.2362 223.648 38.1661Z" fill="white"/>
<path d="M178.437 37.3865H193.982V21.8416H178.437V37.3865Z" fill="white"/>
<path d="M178.437 31.7257L193.982 30.1062V21.8418H178.437V31.7257Z" fill="#9BB8CC"/>
<path d="M161.492 12.4573L195.374 12.0789V29.3947H183.538L161.492 12.4573Z" fill="#37474F"/>
<path d="M112.352 21.8418H96.8073V37.3867H112.352V21.8418Z" fill="white"/>
<path d="M112.352 31.7257L96.8073 30.1062V21.8418H112.352V31.7257Z" fill="#9BB8CC"/>
<path d="M129.297 12.4573L95.4067 12.0789V29.3947H107.251L129.297 12.4573Z" fill="#37474F"/>
<path d="M198.378 115.043H92.228V43.2896L145.303 2.28558L198.378 43.2896V115.043Z" fill="#F2F2F2"/>
<path d="M145.243 2.28558L92.1677 43.2896V49.276L102.884 40.9813V38.7109L137.493 10.5348V14.1751L143.056 9.86883L198.326 50.4944V43.2896L145.243 2.28558Z" fill="#9BB8CC"/>
<path d="M102.884 115.043L137.493 114.907V14.1752L102.884 40.9815V115.043Z" fill="#BBBBBB"/>
<path d="M102.884 38.711V40.9814L137.493 14.1752V10.5349L102.884 38.711Z" fill="#479DA3"/>
<path d="M145.304 0.469482L84.0549 45.8933L88.0433 50.2676L145.304 6.02447L202.571 50.2676L206.454 45.0002L145.304 0.469482Z" fill="#37474F"/>
<path d="M131.257 80.2599H108.984V108.898H131.257V80.2599Z" fill="white"/>
<path d="M119.284 81.554H110.429V107.384H119.284V81.554Z" fill="#37474F"/>
<path d="M129.758 81.554H120.904V107.384H129.758V81.554Z" fill="#37474F"/>
<path d="M131.257 108.519H108.984V108.905H131.257V108.519Z" fill="#9BB8CC"/>
<path d="M134.579 108.898H105.79V112.053H134.579V108.898Z" fill="white"/>
<path d="M135.995 111.97H104.39V115.043H135.995V111.97Z" fill="white"/>
<path d="M134.579 111.584H105.79V111.97H134.579V111.584Z" fill="#9BB8CC"/>
<path d="M131.257 39.4754H108.984V58.9708H131.257V39.4754Z" fill="white"/>
<path d="M119.284 40.7696H110.429V57.4573H119.284V40.7696Z" fill="#37474F"/>
<path d="M129.758 40.7696H120.904V57.4573H129.758V40.7696Z" fill="#37474F"/>
<path d="M132.824 60.7797L107.41 61.9754V60.4315H132.824V60.7797Z" fill="#479DA3"/>
<path d="M108.091 58.9708H108.984V39.4754H108.5L108.091 58.9708Z" fill="#479DA3"/>
<path d="M240.944 78.1039C240.232 76.5799 239.247 75.1649 238.645 73.5865C238.043 72.1714 237.769 70.593 237.714 69.0691C237.66 67.4907 238.098 65.9668 238.262 64.4429C238.426 63.0278 238.426 61.5583 237.824 60.3065C237.222 59.1091 236.236 58.2927 235.087 57.6396C233.992 57.0409 232.733 56.6055 231.529 56.2789C229.886 55.7891 228.189 55.3537 226.766 54.4284C226.109 53.993 225.671 53.3399 225.124 52.9045C225.069 52.8501 225.069 52.8501 225.014 52.7956C224.631 52.4691 223.974 52.3058 223.427 52.1425C223.372 52.1425 223.318 52.0881 223.263 52.0881C223.153 52.0337 223.099 52.0337 222.989 51.9792C222.934 51.9792 222.88 51.9792 222.88 51.9248C222.825 51.9248 222.715 51.8704 222.661 51.8704C222.387 51.816 222.113 51.7615 221.84 51.7071C221.73 51.7071 221.621 51.6527 221.511 51.6527C219.321 51.3806 216.968 51.7071 215.49 53.3399C215.435 53.4488 215.325 53.5032 215.271 53.612C214.012 55.2448 213.683 57.694 214.066 59.6534C214.45 61.5583 215.873 64.334 214.285 66.0757C212.807 67.7085 210.18 67.2186 208.319 68.2527C208.045 68.416 207.771 68.6337 207.552 68.797C207.497 68.8514 207.443 68.9058 207.388 68.9058C206.95 69.3412 206.567 69.8855 206.293 70.4842C206.238 70.593 206.184 70.7019 206.184 70.7563C206.129 70.8652 206.074 70.974 206.074 71.1373C206.019 71.2462 206.019 71.355 205.965 71.5183C205.91 71.6271 205.91 71.7904 205.855 71.8993C205.855 72.0081 205.8 72.1714 205.8 72.2803C205.8 72.3891 205.746 72.5524 205.746 72.6612C205.746 72.7157 205.746 72.7701 205.746 72.879C205.746 72.9878 205.746 73.1511 205.746 73.2599C205.746 73.3144 205.746 73.3688 205.746 73.4776C205.746 74.7294 205.855 75.9813 206.129 77.2331C206.184 77.3963 206.184 77.5052 206.238 77.6685C206.293 77.9406 206.348 78.2672 206.457 78.5393C206.512 78.757 206.567 78.9203 206.622 79.0836C206.676 79.3557 206.786 79.5734 206.841 79.8455C207.224 80.8796 207.662 81.9137 208.154 82.8934C208.264 83.1111 208.373 83.3288 208.483 83.5465C208.866 84.1996 209.249 84.8527 209.687 85.4514C209.961 85.8324 210.18 86.159 210.453 86.4855C210.563 86.5944 210.618 86.7032 210.727 86.8121C210.837 86.9754 211.001 87.1386 211.11 87.2475C211.22 87.3564 211.329 87.4652 211.384 87.5741C211.439 87.6285 211.494 87.6829 211.548 87.7373L211.603 87.7918C213.519 89.8055 215.873 91.3295 218.446 92.418C221.347 93.6698 224.522 94.2685 227.642 94.3773C228.08 94.3773 228.573 94.3773 229.011 94.3773C229.448 94.3773 229.886 94.3229 230.324 94.3229C230.489 94.3229 230.653 94.3229 230.762 94.2685C230.926 94.2685 231.036 94.2685 231.2 94.2141C233.116 94.0508 234.923 93.8331 236.62 92.799C238.919 91.3295 240.725 89.0436 241.546 86.4311C242.422 83.8186 242.203 80.7163 240.944 78.1039Z" fill="#A8A8A8"/>
<path d="M230.543 58.0751C232.514 58.0751 234.047 57.8574 235.087 57.5852C233.992 56.9866 232.733 56.5511 231.528 56.2246C229.886 55.7348 228.189 55.2993 226.766 54.3741C226.109 53.9387 225.671 53.2856 225.124 52.8502C225.069 52.8502 225.069 52.7957 225.014 52.7957C224.467 52.4692 223.92 52.197 223.317 52.0338C223.263 52.0338 223.208 51.9793 223.153 51.9793C223.044 51.9249 222.989 51.9249 222.879 51.8705C222.825 51.8705 222.77 51.8705 222.77 51.8161C222.715 51.8161 222.606 51.7616 222.551 51.7616C222.277 51.7072 222.004 51.6528 221.73 51.5984C221.62 51.5984 221.511 51.5439 221.401 51.5439C219.212 51.2718 216.803 51.6528 215.38 53.2311C215.325 53.34 215.216 53.3944 215.161 53.5033C213.902 55.1361 213.574 57.5852 213.957 59.5446C214.34 61.4495 215.763 64.2253 214.176 65.9669C212.698 67.5997 210.07 67.1098 208.209 68.1439C207.935 68.3072 207.662 68.5249 207.443 68.6882C207.388 68.7426 207.333 68.7971 207.278 68.7971C206.84 69.2325 206.457 69.7767 206.184 70.3754C206.129 70.4843 206.074 70.5931 206.074 70.6476C206.019 70.7564 205.965 70.8653 205.965 71.0285C205.91 71.1374 205.91 71.2462 205.855 71.4095C205.8 71.5184 205.8 71.6817 205.746 71.7905C205.746 71.8994 205.691 72.0626 205.691 72.1715C205.691 72.2803 205.636 72.4436 205.636 72.5525C205.636 72.6069 205.636 72.6613 205.636 72.7702C205.636 72.879 205.636 73.0423 205.636 73.1512C205.636 73.2056 205.636 73.26 205.636 73.3144C205.636 74.5663 205.746 75.8181 206.019 77.0699C206.074 77.2331 206.074 77.342 206.129 77.5053C206.184 77.7774 206.293 78.104 206.348 78.3761C206.402 78.5938 206.457 78.7571 206.512 78.9204C206.567 79.1925 206.676 79.4102 206.731 79.6823C207.114 80.7164 207.552 81.7505 208.045 82.7302C208.154 82.9479 208.264 83.1656 208.373 83.3833C208.756 84.0364 209.14 84.6895 209.577 85.2882C209.851 85.6692 210.07 85.9958 210.344 86.3223C210.453 86.4312 210.508 86.54 210.618 86.6489C210.727 86.8122 210.891 86.9755 211.001 87.0843C211.11 87.1932 211.22 87.302 211.274 87.4109C211.329 87.4653 211.384 87.5197 211.439 87.5741L211.493 87.6286C222.825 93.7787 214.614 75.0561 218.391 71.6272C220.799 69.4502 225.507 72.4981 227.587 71.0285C228.627 70.2666 228.572 68.7971 227.751 67.6541C225.179 64.1708 221.073 60.4154 223.153 58.2928C224.303 57.422 226.492 58.0751 230.543 58.0751Z" fill="#9D9D9C"/>
<path d="M230.653 115.277H228.354L228.244 100.092L225.781 78.2673L226.383 77.4509L229.613 98.7316L231.967 83.5466L232.569 84.1453L230.215 101.398L230.653 115.277Z" fill="#37474F"/>
<path d="M236.729 82.2948L231.31 90.2411V89.5879L236.401 81.9683L236.729 82.2948Z" fill="#37474F"/>
<path d="M227.259 88.4994L222.661 82.2948L222.88 81.9683L227.369 87.7375L227.259 88.4994Z" fill="#37474F"/>
<path d="M228.408 75.2193L227.04 82.7302L226.711 81.9682L228.08 75.1649L228.408 75.2193Z" fill="#37474F"/>
<path d="M132.816 58.9708H107.41V60.4315H132.816V58.9708Z" fill="#37474F"/>
<path d="M172.148 39.4754H158.442V49.1096H172.148V39.4754Z" fill="#37474F"/>
<path d="M157.231 39.4754H143.782V49.1096H157.231V39.4754Z" fill="#37474F"/>
<path d="M172.147 50.5627H142.261V39.4754H141.784L141.345 51.5011L172.147 50.9638V50.5627Z" fill="#9BB8CC"/>
<path d="M147.755 67.1974L147.241 115.043H148.792V108.981V67.1974H147.755Z" fill="#9BB8CC"/>
<path d="M220.258 66.8644H148.792V115.043H220.258V66.8644Z" fill="#E85451"/>
<path d="M220.258 108.981H148.792V115.043H220.258V108.981Z" fill="#C94444"/>
<path d="M220.258 72.4647L148.792 75.8098V70.5272H220.258V72.4647Z" fill="#C94444"/>
<path d="M202.995 80.2599H165.995V103.577H202.995V80.2599Z" fill="white"/>
<path d="M173.752 81.554H167.418V102.124H173.752V81.554Z" fill="#37474F"/>
<path d="M194.481 81.554H174.744V102.124H194.481V81.554Z" fill="#37474F"/>
<path d="M201.807 81.554H195.472V102.124H201.807V81.554Z" fill="#37474F"/>
<path d="M202.995 79.9571H165.994H165.442L164.988 103.577H165.994V80.2598H202.995V79.9571Z" fill="#C94444"/>
<path d="M165.994 103.38H202.995V103.933L164.988 105.613V103.38H165.994Z" fill="#C94444"/>
<path d="M222.415 70.5271H148.369V67.0533L222.415 66.9095V70.5271Z" fill="white"/>
<path d="M222.415 67.8858L148.369 68.7183V67.0533L222.415 66.9095V67.8858Z" fill="#9BB8CC"/>
<path d="M224.587 65.9033L205.969 56.4507H165.041L145.22 66.3195V67.4169L224.587 67.099V65.9033Z" fill="#37474F"/>
<path d="M152.425 69.4678H149.776V72.0794H152.425V69.4678Z" fill="white"/>
<path d="M157.368 69.4678H154.718V72.0794H157.368V69.4678Z" fill="white"/>
<path d="M162.302 69.4678H159.653V72.0794H162.302V69.4678Z" fill="white"/>
<path d="M167.236 69.4678H164.587V72.0794H167.236V69.4678Z" fill="white"/>
<path d="M172.17 69.4678H169.521V72.0794H172.17V69.4678Z" fill="white"/>
<path d="M182.039 69.4678H179.39V72.0794H182.039V69.4678Z" fill="white"/>
<path d="M177.105 69.4678H174.455V72.0794H177.105V69.4678Z" fill="white"/>
<path d="M186.974 69.4678H184.325V72.0794H186.974V69.4678Z" fill="white"/>
<path d="M191.908 69.4678H189.259V72.0794H191.908V69.4678Z" fill="white"/>
<path d="M196.843 69.4678H194.193V72.0794H196.843V69.4678Z" fill="white"/>
<path d="M201.777 69.4678H199.128V72.0794H201.777V69.4678Z" fill="white"/>
<path d="M206.712 69.4678H204.062V72.0794H206.712V69.4678Z" fill="white"/>
<path d="M216.58 69.4678H213.931V72.0794H216.58V69.4678Z" fill="white"/>
<path d="M211.646 69.4678H208.996V72.0794H211.646V69.4678Z" fill="white"/>
<path d="M221.515 69.4678H218.865V72.0794H221.515V69.4678Z" fill="white"/>
<path d="M152.425 70.5272H149.776V71.0344H152.425V70.5272Z" fill="#9BB8CC"/>
<path d="M157.368 70.5272H154.718V71.0344H157.368V70.5272Z" fill="#9BB8CC"/>
<path d="M162.302 70.5272H159.653V71.0344H162.302V70.5272Z" fill="#9BB8CC"/>
<path d="M167.236 70.5272H164.587V71.0344H167.236V70.5272Z" fill="#9BB8CC"/>
<path d="M172.17 70.5272H169.521V71.0344H172.17V70.5272Z" fill="#9BB8CC"/>
<path d="M182.039 70.5272H179.39V71.0344H182.039V70.5272Z" fill="#9BB8CC"/>
<path d="M177.105 70.5272H174.455V71.0344H177.105V70.5272Z" fill="#9BB8CC"/>
<path d="M186.974 70.5272H184.325V71.0344H186.974V70.5272Z" fill="#9BB8CC"/>
<path d="M191.908 70.5272H189.259V71.0344H191.908V70.5272Z" fill="#9BB8CC"/>
<path d="M196.843 70.5272H194.193V71.0344H196.843V70.5272Z" fill="#9BB8CC"/>
<path d="M201.777 70.5272H199.128V71.0344H201.777V70.5272Z" fill="#9BB8CC"/>
<path d="M206.712 70.5272H204.062V71.0344H206.712V70.5272Z" fill="#9BB8CC"/>
<path d="M216.58 70.5272H213.931V71.0344H216.58V70.5272Z" fill="#9BB8CC"/>
<path d="M211.646 70.5272H208.996V71.0344H211.646V70.5272Z" fill="#9BB8CC"/>
<path d="M221.515 70.5272H218.865V71.0344H221.515V70.5272Z" fill="#9BB8CC"/>
<path d="M108.136 108.898H108.984V80.2599H108.5L108.136 108.898Z" fill="#479DA3"/>
</g>
<path d="M106.316 79.078C105.711 79.4121 105.24 79.8799 104.77 80.4144C103.224 82.2855 102.417 84.5575 102.283 86.9631C102.216 87.8318 102.216 88.7005 102.283 89.5693C102.35 90.3711 102.283 91.1062 102.283 91.9081C102.216 93.5787 102.283 95.3161 102.283 96.9867C102.283 98.5236 102.283 100.194 101.477 101.597C101.208 102.132 100.939 102.667 100.67 103.201C100.603 103.402 100.468 103.535 100.334 103.669C100.2 103.803 99.9307 103.803 99.7963 103.736C99.8635 104.003 100.065 104.27 100.334 104.404C100.603 104.538 100.872 104.538 101.14 104.471C101.275 104.404 101.409 104.337 101.544 104.337C101.813 104.27 102.081 104.471 102.283 104.538C102.485 104.605 102.753 104.538 102.955 104.404C103.157 104.27 103.224 104.07 103.358 103.869C103.493 103.669 103.627 103.402 103.762 103.201C104.434 101.531 104.299 99.6596 104.098 97.8554C103.963 96.9198 103.829 95.9843 103.829 95.1156C103.829 94.3137 103.694 93.2445 104.098 92.5763C104.434 91.9081 104.635 91.173 104.77 90.438C104.971 89.6361 105.106 88.8342 105.24 88.0323C105.711 85.2926 106.114 82.486 107.593 80.0803C107.727 79.8799 107.861 79.6126 107.996 79.4121C108.13 79.1448 108.265 78.9443 107.929 78.8775C107.458 78.6102 106.786 78.8107 106.316 79.078Z" fill="#E85451"/>
<path d="M111.423 87.4313C111.154 86.4957 110.952 84.892 110.012 84.892C109.071 84.892 108.6 85.8275 108.6 86.763C108.466 89.7701 111.759 92.6435 112.297 94.9155L113.641 94.1136C113.103 92.0421 112.028 89.5028 111.423 87.4313Z" fill="#FFA471"/>
<path d="M118.547 88.7008C118.816 87.7653 119.017 86.1615 119.958 86.1615C120.899 86.1615 121.37 87.097 121.37 88.0326C121.504 91.0396 118.211 93.913 117.673 96.185L116.329 95.3831C116.934 93.3116 118.009 90.7723 118.547 88.7008Z" fill="#FFA471"/>
<path d="M121.235 117.102L121.101 116.567C121.101 116.433 121.101 116.366 121.034 116.233C120.966 115.899 120.697 114.428 120.63 114.228L121.571 114.094C121.437 113.292 121.84 115.564 121.975 115.899C122.042 116.032 122.109 116.166 122.176 116.3C122.176 116.3 122.176 116.3 122.109 116.3C122.042 116.3 121.235 117.102 121.235 117.102Z" fill="#FFA471"/>
<path d="M123.79 118.037C122.58 118.238 120.899 117.97 120.899 117.97V117.904C120.899 117.904 120.899 117.904 120.899 117.837C120.899 117.837 120.899 116.5 121.101 116.233C121.639 116.767 121.907 115.23 122.042 115.698C122.311 116.7 124.193 117.503 124.26 117.636C124.26 117.703 124.462 118.037 123.79 118.037Z" fill="#131616"/>
<path d="M122.176 113.492C121.773 109.216 120.63 98.3234 120.227 95.9177C120.227 95.8509 120.227 95.7841 120.16 95.7173C120.026 94.7817 119.891 93.913 119.69 92.9775C119.622 92.777 119.622 92.5097 119.555 92.3093C119.488 92.042 119.421 91.7747 119.353 91.5074C119.353 91.3737 119.286 91.2401 119.219 91.1064H114.38C114.514 91.5742 114.716 92.3761 114.985 93.3784C114.985 93.4453 114.985 93.4453 114.985 93.5121C115.052 93.913 115.186 94.2471 115.321 94.7149C115.321 94.8486 115.388 94.9154 115.388 95.049C115.657 95.9846 115.926 97.1206 116.195 98.1897C116.195 98.3234 116.262 98.457 116.262 98.5907C117.673 104.204 119.421 110.886 119.757 112.356C120.026 113.492 120.362 114.495 120.63 115.23L122.243 115.029C122.243 114.628 122.176 114.161 122.176 113.492Z" fill="#DDDDDD"/>
<path d="M120.63 115.096C120.361 114.361 120.025 113.292 119.757 112.223C119.42 110.753 117.606 103.736 116.194 98.0562C116.06 96.4524 115.791 94.8486 115.59 93.2449C115.657 93.3117 115.657 93.4453 115.724 93.579C116.463 94.9823 116.665 96.987 117.068 98.5907C117.606 100.462 117.942 102.4 118.48 104.271C119.017 106.142 119.42 108.013 120.16 109.817C120.563 110.753 121.168 112.958 122.243 113.426C122.31 114.094 122.378 114.562 122.378 114.896L120.63 115.096Z" fill="#C6C6C6"/>
<path d="M113.708 117.235C113.708 117.235 113.977 114.896 114.044 114.495L113.171 114.695C113.171 114.896 113.103 115.363 112.969 115.831C112.902 116.032 112.834 116.299 112.834 116.5C112.834 116.5 112.834 116.5 112.902 116.5L113.708 117.235Z" fill="#FFA471"/>
<path d="M114.045 117.903V117.97C114.045 117.97 111.759 118.17 111.692 117.769C111.692 117.636 111.759 117.502 111.894 117.368C111.961 117.302 112.095 117.168 112.163 117.101L112.23 117.034C112.902 116.232 112.566 115.697 113.036 115.764C113.507 115.764 113.507 116.366 113.843 116.366C114.045 116.566 114.045 117.836 114.045 117.903Z" fill="#131616"/>
<path d="M111.692 91.2398C111.624 96.1847 112.431 112.156 112.7 115.029L114.38 115.163C114.649 112.423 116.127 97.2539 116.732 91.2398H111.692Z" fill="#DDDDDD"/>
<path d="M117.674 81.2166C117.741 81.9516 117.808 82.553 117.875 83.0876C118.077 84.1568 118.279 85.4933 118.279 86.5624C118.279 87.1638 118.144 87.8989 118.816 88.0994C118.883 88.0994 119.152 88.0994 119.556 88.0994C120.362 88.0325 121.639 87.8989 121.639 87.6984C121.639 87.4311 121.639 87.1638 121.639 86.8965C121.639 85.8942 121.639 84.825 121.572 83.9563C121.505 82.6198 121.37 81.2166 121.169 79.8801C120.967 78.5436 120.496 77.274 119.421 77.1403C118.749 77.0067 118.211 77.8754 118.211 77.8754C117.674 78.6104 117.606 79.9469 117.674 81.2166Z" fill="#737D8E"/>
<path d="M120.832 81.4839C120.765 82.1522 120.765 83.2882 120.496 83.9564C120.429 84.09 120.429 84.1569 120.362 84.2237L120.295 84.2905C119.959 84.8919 119.959 85.627 119.824 86.362C119.555 87.9658 119.286 89.5027 119.555 91.1065C119.891 92.9776 120.698 94.715 121.437 96.4524C122.311 98.6575 123.117 101.13 122.513 103.469C122.445 103.803 122.244 104.204 121.975 104.404C121.706 104.538 121.37 104.471 121.101 104.471C118.077 104.003 115.052 104.07 112.028 104.672C111.423 104.805 110.751 104.939 110.146 105.139C110.213 101.932 110.415 98.7244 110.751 95.5168C110.885 93.9131 111.087 92.3093 111.289 90.7056C111.49 89.3691 111.893 88.0326 111.961 86.6962C112.028 85.8274 112.028 84.9587 111.893 84.1569C111.625 82.6867 111.692 81.1498 111.356 80.1475C111.221 79.6797 111.02 78.7442 110.952 77.8755C110.952 77.8086 110.952 77.675 110.952 77.6082C110.952 77.274 111.02 77.0068 111.087 76.8063C111.087 76.7395 111.154 76.6726 111.221 76.6058C111.221 76.6058 111.221 76.6058 111.221 76.539C111.423 76.2717 111.692 76.0712 112.095 75.9376C112.162 75.8708 112.297 75.8708 112.364 75.8708C112.902 75.6703 113.574 75.6703 114.179 75.7371C114.582 75.8039 118.144 76.0044 118.144 76.0044C118.749 76.539 119.555 76.7395 120.16 77.2072C120.698 77.675 120.832 78.811 120.899 79.4792C120.967 80.3479 120.899 80.682 120.832 81.4839Z" fill="#737D8E"/>
<path d="M114.38 75.804C114.918 77.0068 117.068 78.4101 117.875 78.4101C118.48 78.4101 118.749 77.2741 118.278 76.3386C118.278 76.2049 118.278 75.6704 118.278 75.6035C118.413 74.8685 118.547 74.668 118.681 74.2002L116.262 71.6609C116.262 72.2624 116.195 72.7969 115.993 73.3315C115.859 73.7325 115.657 74.2002 115.455 74.6012C115.186 75.1358 114.918 75.5367 114.38 75.804Z" fill="#FFA471"/>
<path d="M116.867 75.7371C117.471 76.2049 118.144 76.1381 118.278 75.5366C118.412 74.8016 118.547 74.6011 118.681 74.1334L116.262 71.6609C116.262 72.2623 116.194 72.7969 115.993 73.3315V73.3983C115.791 74.2002 116.127 75.2025 116.867 75.7371Z" fill="#E07F4F"/>
<path d="M120.43 68.7874C120.766 69.1216 120.9 70.458 120.497 72.6632C120.295 73.7324 119.489 75.5366 118.884 75.8039C118.346 76.0044 116.867 75.8707 116.263 74.7347C115.523 73.3982 115.859 72.5295 115.926 71.594C116.263 67.2505 119.085 67.5846 120.43 68.7874Z" fill="#FFA471"/>
<path d="M115.59 72.2623C115.792 72.2623 116.128 72.6633 116.33 72.6633V72.5965C116.33 71.995 116.464 70.7922 116.598 70.2576C116.666 70.0572 119.959 71.0595 120.228 69.7899C120.228 69.6562 120.295 69.5226 120.228 69.3889C120.16 69.0548 119.959 68.5871 119.556 68.0525C119.556 68.0525 116.666 66.5155 115.523 68.4534C115.389 68.7207 115.254 68.988 115.187 69.2553C115.12 69.4558 115.12 69.5894 115.12 69.7899C115.12 70.8591 115.725 71.7278 115.59 72.2623Z" fill="#3A2E2D"/>
<path d="M116.061 72.2622H116.397C116.397 72.6632 116.464 73.198 116.666 73.599C116.868 74.0669 119.422 73.4653 119.893 74.1337C120.027 74.3342 119.893 74.5347 119.825 74.7352C119.691 75.1363 119.489 75.3368 119.22 75.671C118.952 76.0052 118.548 76.072 118.078 76.072C117.674 76.072 117.136 76.0052 116.8 75.8047C116.464 75.5373 116.195 75.1363 116.061 74.7352C115.926 74.3342 115.792 73.599 115.792 73.198C115.792 72.8638 116.061 72.6632 116.061 72.2622Z" fill="#0F0C0B"/>
<path d="M118.212 67.5845L119.489 68.3866C119.489 68.7208 119.556 68.9881 119.623 69.1886C119.691 69.3223 119.825 69.5228 119.959 69.6565C120.363 70.0575 120.766 70.5922 120.699 71.1938C121.035 70.9264 121.304 70.5922 121.438 70.1244C121.573 69.7902 121.506 69.3891 121.371 69.0549C121.035 68.2529 119.758 67.1166 118.212 67.5845Z" fill="#3A2E2D"/>
<path d="M115.59 72.2627C115.792 72.2627 116.128 72.6636 116.329 72.6636C116.329 72.5968 116.397 72.2627 116.397 72.2627C116.397 71.6613 116.464 70.7258 116.598 70.258C116.666 70.0575 119.959 71.0599 120.228 69.7902C120.16 69.5898 120.093 69.4561 119.959 69.3225L119.757 68.5874C119.824 69.5229 118.615 69.5898 117.942 69.5229C117.539 69.4561 117.136 69.3225 116.8 69.3893C116.397 69.4561 116.329 69.6566 116.128 69.9239C116.128 69.6566 116.128 69.4561 116.195 69.1888C115.993 69.4561 115.792 69.7234 115.725 69.9907C115.523 69.7902 115.389 69.5229 115.254 69.1888C115.187 69.3893 115.187 69.5229 115.187 69.7234C115.12 70.8594 115.725 71.7281 115.59 72.2627Z" fill="#0F0C0B"/>
<path d="M114.985 71.9284C115.053 70.7921 116.128 71.3269 116.128 72.3294C116.128 72.6636 116.061 73.5994 115.389 72.931C115.053 72.6636 114.918 72.3294 114.985 71.9284Z" fill="#FFA471"/>
<path d="M115.322 71.661C115.187 71.661 115.12 71.8616 115.12 72.0621C115.053 71.7947 115.12 71.3937 115.456 71.4605C115.725 71.5274 115.859 71.8616 115.927 72.0621C115.389 72.1289 115.927 72.5968 115.927 72.5968C115.725 72.6636 115.523 72.5968 115.456 72.3294C115.389 72.1289 115.523 71.8616 115.792 71.9284C115.658 71.8616 115.456 71.661 115.322 71.661Z" fill="#E07F4F"/>
<path d="M120.026 69.6566C120.429 70.0576 120.833 70.5923 120.765 71.1939C121.102 70.9265 121.371 70.5923 121.505 70.1245C121.505 70.0576 121.505 70.0576 121.438 69.9908C121.236 69.2555 120.295 69.055 119.69 68.5872L119.623 69.1219C119.69 69.3224 119.824 69.4561 120.026 69.6566Z" fill="#0F0C0B"/>
<path d="M115.187 75.0687C115.053 75.4029 117.338 78.1433 117.876 78.4107C117.002 78.4775 116.061 78.2102 115.187 79.0122C115.053 77.9428 114.649 76.6729 114.044 75.804L115.187 75.0687Z" fill="#4E5866"/>
<path d="M118.278 76.1381C118.48 76.3386 118.749 76.3386 118.816 76.5392C118.883 76.6728 118.951 77.2075 118.951 77.4081C118.951 77.8759 119.152 78.3438 118.883 78.8117C118.547 78.5443 118.346 78.3438 117.808 78.4106C118.413 77.4749 118.278 76.1381 118.278 76.1381Z" fill="#4E5866"/>
<path d="M111.961 84.2233C111.692 82.7532 111.759 81.2163 111.423 80.2139C111.289 79.7462 111.087 78.8106 111.02 77.9419C111.02 77.541 111.02 77.14 111.154 76.8727C111.154 76.8059 111.221 76.7391 111.289 76.6723C111.692 76.4718 112.23 76.5386 112.7 76.9396C113.507 77.6746 113.641 78.9443 113.775 80.0134C114.179 84.4238 112.095 85.0252 111.961 84.2233Z" fill="#737D8E"/>
<path d="M113.17 80.7485C113.036 81.4168 112.834 82.085 112.7 82.5528C112.364 83.5551 111.961 84.8248 111.759 85.8939C111.692 86.4954 111.692 87.2304 110.952 87.3641C110.885 87.3641 110.616 87.2972 110.213 87.2304C109.407 87.0299 108.197 86.6958 108.197 86.4954C108.197 86.2281 108.264 85.9608 108.264 85.6935C108.398 84.6911 108.6 83.6888 108.802 82.8201C109.071 81.5504 109.407 80.0803 109.877 78.8107C110.348 77.4742 110.952 76.3382 112.028 76.3382C112.7 76.3382 113.103 77.2737 113.103 77.2737C113.574 78.1424 113.439 79.5457 113.17 80.7485Z" fill="#737D8E"/>
<path d="M113.305 79.8131C113.237 80.1472 113.237 80.4145 113.17 80.7486C113.036 81.4169 112.834 82.0851 112.7 82.5529C112.364 83.5552 111.961 84.8249 111.759 85.894C111.692 86.4955 111.692 87.2305 110.952 87.3642C110.885 87.3642 110.616 87.2973 110.213 87.2305C109.407 87.03 108.197 86.6959 108.197 86.4955C108.197 86.2282 108.264 85.9609 108.264 85.6936C108.667 86.3618 110.616 86.1613 111.221 85.9609C111.423 84.8917 111.893 83.8225 112.229 82.7533C112.633 81.8846 112.767 80.4813 113.305 79.8131Z" fill="#4E5866"/>
<path d="M108.398 114.762C108.533 114.562 108.667 114.361 108.734 114.161L109.675 114.829C110.011 115.297 110.953 116.5 111.154 116.834C111.356 117.235 111.423 117.436 111.087 117.569C110.079 117.837 109.339 117.77 108.869 117.569C108.331 117.102 108.331 116.3 108.331 115.765C108.264 115.497 108.264 115.03 108.398 114.762Z" fill="#131616"/>
<path d="M111.087 117.169C110.751 117.302 109.742 117.436 109.272 117.302H109.205C109.205 117.302 109.137 117.302 109.137 117.235C109.003 117.102 108.868 116.968 108.734 116.768C108.465 116.366 108.331 115.899 108.331 115.498V115.431C108.331 115.364 108.331 115.297 108.331 115.23C108.331 115.163 108.331 115.163 108.331 115.097V115.03V114.963C108.331 114.762 108.398 114.562 108.465 114.428C108.532 114.294 108.6 114.161 108.667 114.027C108.667 113.96 108.734 113.96 108.734 113.893C108.801 113.893 108.801 113.893 108.868 113.893H108.936L109.742 114.428L109.81 114.495C109.944 114.629 110.011 114.762 110.146 114.963C110.347 115.23 110.482 115.564 110.616 115.765C110.751 116.032 111.221 116.567 111.289 116.834C111.221 117.035 111.154 117.169 111.087 117.169Z" fill="#131616"/>
<path d="M109.944 111.688C109.944 112.357 109.944 113.025 110.011 113.626C110.011 113.76 110.011 113.894 109.877 113.96C109.81 114.027 109.742 114.027 109.675 113.96C109.675 113.96 109.675 113.96 109.608 113.96C109.339 113.96 109.138 113.894 108.869 113.894H108.801C108.734 113.894 108.734 113.894 108.667 113.894C108.667 113.894 108.667 113.894 108.6 113.894C108.533 113.894 108.533 113.827 108.533 113.827C108.533 113.76 108.533 113.76 108.533 113.693C108.533 113.493 108.533 113.292 108.533 113.092C108.533 112.958 108.533 112.758 108.533 112.624C108.533 112.49 108.465 112.423 108.465 112.29C108.398 112.022 108.398 111.822 108.331 111.555C108.264 111.221 108.197 110.953 108.129 110.619C108.129 110.486 108.129 110.352 108.129 110.151C108.129 109.483 108.197 108.882 108.197 108.214C108.264 107.478 108.264 106.81 108.331 106.075C109.138 106.075 109.944 106.075 110.751 106.008C110.549 107.278 110.347 108.548 110.146 109.817C110.078 110.552 110.011 111.154 109.944 111.688Z" fill="#E85451"/>
<path d="M108.801 111.688C108.801 112.49 108.869 113.292 109.272 113.96C109.272 113.96 108.936 113.96 108.869 113.96H108.801C108.734 113.96 108.734 113.96 108.667 113.96C108.667 113.96 108.667 113.96 108.6 113.96C108.533 113.96 108.533 113.894 108.533 113.894C108.533 113.827 108.533 113.827 108.533 113.76C108.533 113.559 108.533 113.359 108.533 113.158C108.533 113.025 108.533 112.824 108.533 112.691C108.533 112.557 108.465 112.49 108.465 112.357C108.398 112.089 108.398 111.889 108.331 111.622C108.264 111.287 108.197 111.02 108.129 110.686C108.129 110.552 108.129 110.419 108.129 110.218C108.129 109.55 108.197 108.949 108.197 108.28C108.264 107.545 108.264 106.877 108.331 106.142C108.331 106.075 109.003 106.142 109.07 106.142C109.003 107.078 109.003 107.946 108.936 108.882C108.869 109.684 108.869 110.486 108.869 111.221C108.801 111.421 108.801 111.555 108.801 111.688Z" fill="#CE3838"/>
<path d="M112.229 98.5242C112.095 99.0588 112.028 99.5265 111.893 100.061C111.692 101.063 111.49 102.066 111.288 103.068C111.087 104.071 110.885 105.14 110.751 106.142C110.751 106.142 110.751 106.142 110.751 106.209C109.944 106.209 109.138 106.276 108.331 106.276C108.264 107.011 108.264 107.679 108.197 108.414C108.197 109.082 108.129 109.684 108.129 110.352C108.129 110.486 108.129 110.619 108.129 110.82C108.062 110.619 108.062 110.419 107.995 110.218C107.861 109.483 107.659 108.681 107.659 107.946C107.659 107.345 107.726 106.81 107.793 106.343C107.861 106.008 107.928 105.741 108.062 105.407C108.197 104.939 108.331 104.538 108.466 104.071C108.6 103.603 108.667 103.135 108.734 102.6C108.802 101.398 108.869 100.729 108.936 100.061C108.936 99.727 109.003 99.4597 109.003 99.0588C109.003 98.9919 109.003 98.8583 109.003 98.7915V98.7246H112.229V98.5242Z" fill="#E85451"/>
<path d="M110.012 116.233C109.541 116.166 109.138 115.631 108.936 115.297C108.869 115.23 108.869 115.163 108.802 115.096C108.734 114.963 108.667 114.829 108.667 114.695C108.667 114.628 108.6 114.495 108.6 114.428C108.6 114.361 108.6 114.227 108.6 114.161C108.6 114.161 108.6 114.161 108.6 114.094V114.027C108.6 114.027 108.6 114.027 108.6 113.96C108.6 113.96 108.6 113.96 108.667 113.96C108.734 113.96 108.734 113.96 108.802 113.96H108.869C109.138 113.96 109.339 114.027 109.608 114.027C109.675 114.094 109.675 114.227 109.675 114.294C109.675 114.361 109.743 114.495 109.743 114.562C109.743 114.695 109.81 114.762 109.81 114.896C109.81 114.896 109.81 114.963 109.877 114.963C109.877 115.03 109.944 115.096 109.944 115.163C110.213 115.698 110.617 116.299 110.012 116.233Z" fill="#FFA471"/>
<path d="M106.92 115.229C106.987 114.962 107.122 114.828 107.189 114.628L108.197 115.163C108.601 115.564 108.87 116.165 109.071 116.499C109.273 116.834 109.475 117.636 109.071 117.836C108.735 118.037 108.063 118.17 107.66 117.97C107.055 117.569 106.987 116.767 106.92 116.232C106.853 115.965 106.786 115.497 106.92 115.229Z" fill="#131616"/>
<path d="M106.853 114.895C106.92 114.628 107.054 114.494 107.122 114.294L108.13 114.829C108.533 115.23 108.802 115.831 109.004 116.165C109.206 116.5 109.407 117.302 109.004 117.502C108.668 117.703 107.928 117.703 107.525 117.502C106.92 117.101 106.853 116.433 106.853 115.831C106.786 115.631 106.786 115.163 106.853 114.895Z" fill="#131616"/>
<path d="M109.003 98.5236C108.869 100.061 108.735 101.531 108.6 103.068C108.6 103.335 108.533 103.602 108.533 103.869C108.466 104.605 108.399 105.406 108.399 106.141C108.331 106.877 108.331 107.545 108.264 108.28C108.264 108.948 108.197 109.549 108.197 110.218C108.197 110.351 108.197 110.485 108.197 110.685C108.197 110.819 108.197 111.02 108.197 111.153C108.13 112.156 108.13 113.225 108.062 114.227C108.062 114.294 108.062 114.294 108.062 114.294C108.062 114.361 108.062 114.428 108.062 114.494H107.122V114.428C107.122 114.361 107.122 114.294 107.122 114.227C107.054 114.027 107.054 113.759 106.92 113.425C106.517 111.755 106.181 108.814 106.046 108.079C105.912 107.344 105.912 106.676 105.912 106.075C105.912 105.072 106.046 104.204 105.979 102.934C105.979 102.867 105.979 102.8 105.979 102.667C105.912 101.464 105.912 100.796 105.912 100.061C105.912 99.7264 105.912 99.4591 105.912 99.0582V98.7909C105.912 98.6573 105.912 98.5904 105.912 98.4568H109.003V98.5236Z" fill="#FFA471"/>
<path d="M109.003 98.524C108.869 100.061 108.734 101.531 108.6 103.068C108.6 103.335 108.533 103.603 108.533 103.87C108.466 104.605 108.398 105.407 108.398 106.142C108.331 107.077 108.264 108.08 108.264 109.015C108.264 109.75 108.197 110.485 108.197 111.154C108.197 111.889 108.331 112.557 108.331 113.292C108.331 113.492 108.398 114.027 108.13 114.094C108.13 114.094 108.13 114.094 108.062 114.094C107.995 114.094 107.928 114.094 107.861 114.094C107.592 114.094 107.39 114.094 107.121 114.094C106.785 114.094 106.517 114.094 106.181 114.094C106.113 114.094 106.046 114.094 105.979 114.027C105.912 113.96 105.912 113.96 105.912 113.893C105.844 113.025 105.777 112.223 105.71 111.354C105.576 109.817 105.508 108.28 105.576 106.743C105.576 106.476 105.643 106.209 105.643 105.941C105.777 104.939 106.046 103.87 106.046 102.867C106.046 102.801 106.046 102.734 106.046 102.6C105.979 101.397 105.979 100.729 105.979 99.9941C105.979 99.66 105.979 99.3927 105.979 98.9917V98.7244C105.979 98.5908 105.979 98.524 105.979 98.3903H109.003V98.524Z" fill="#E85451"/>
<path d="M107.861 114.294H107.928C108.063 114.361 108.063 114.428 108.063 114.561C108.13 114.695 108.13 114.829 108.197 114.962C108.264 115.163 108.332 115.363 108.399 115.564C108.533 115.898 109.138 116.901 108.332 116.901C107.861 116.901 107.256 116.165 107.122 115.764C107.054 115.497 106.987 115.23 106.987 114.962C106.987 114.829 106.987 114.695 106.987 114.561C106.987 114.428 106.987 114.361 107.122 114.294C107.189 114.294 107.189 114.294 107.256 114.294C107.39 114.294 107.525 114.294 107.659 114.294C107.794 114.294 107.794 114.294 107.861 114.294Z" fill="#FFA471"/>
<path d="M110.482 80.415L110.818 79.1454C112.162 80.0809 112.7 81.4174 112.969 81.8851C113.574 82.8875 113.977 83.9567 113.574 85.0258C112.969 83.4889 110.616 82.2193 110.482 80.415Z" fill="#E85451"/>
<path d="M108.331 79.8136C108.802 79.8136 109.071 79.8805 109.541 80.1478C109.944 80.3482 110.28 80.4819 110.549 80.8828C110.818 81.2169 111.087 81.6179 111.289 81.952C111.423 82.2193 112.364 83.4221 112.633 83.4889C112.633 82.6202 112.23 81.3506 111.692 80.4819C111.423 80.0809 110.751 79.2122 110.818 78.7445C110.885 78.2099 111.02 77.6753 111.087 77.2075L108.802 76.0715C108.802 76.3388 108.802 76.6061 108.735 76.8734C108.667 77.8089 108.533 78.8781 108.331 79.8136Z" fill="#FFA471"/>
<path d="M108.802 76.4724C108.869 77.475 109.34 78.0097 109.743 78.4107C109.945 78.6112 110.348 78.6781 110.819 78.7449C110.886 78.2102 111.02 77.6755 111.087 77.2076L108.802 76.0714C108.802 76.3387 108.802 76.1382 108.802 76.4724Z" fill="#E07F4F"/>
<path d="M113.641 105.541C113.775 105.808 113.103 105.942 112.162 106.008C111.759 106.075 111.289 106.075 110.751 106.075C109.944 106.075 109.138 106.142 108.331 106.142H108.197C108.063 106.142 107.928 106.142 107.794 106.142C107.592 106.142 107.458 106.142 107.256 106.142C106.718 106.142 106.181 106.142 105.845 106.075C105.71 106.075 105.643 106.075 105.576 106.075C105.374 106.075 105.24 106.075 105.173 106.008H105.105C105.105 106.008 105.038 105.808 105.038 105.541C105.038 105.34 104.971 105.073 104.971 104.806C104.971 104.605 104.971 104.338 104.904 104.071C104.904 103.803 104.904 103.536 104.837 103.269C104.837 103.068 104.837 102.868 104.837 102.6C104.837 102.4 104.837 102.2 104.837 101.999C104.769 100.395 104.769 98.6579 104.769 97.121C104.769 96.9205 104.769 96.7868 104.769 96.5864C104.769 96.5196 104.769 96.4527 104.769 96.3859C104.769 96.2523 104.769 96.1186 104.769 95.9181C104.769 95.8513 104.769 95.8513 104.769 95.7845C104.769 95.584 104.769 95.3836 104.769 95.2499C104.769 95.1163 104.769 94.9826 104.769 94.849C104.769 94.7153 104.769 94.6485 104.769 94.5817C104.769 94.5817 104.769 94.5817 104.769 94.5148C104.769 94.448 104.769 94.448 104.769 94.3812V94.3144C104.769 94.2476 104.769 94.1807 104.837 94.1139C104.837 94.0471 104.904 93.9134 104.904 93.7798C104.971 93.5793 104.971 93.3788 105.038 93.1784C105.105 92.8443 105.24 92.4433 105.374 92.0424C105.509 91.6414 105.643 91.2405 105.71 90.8396C105.777 90.5723 105.845 90.305 105.979 90.1045C105.979 90.0377 106.046 89.9709 106.046 89.904C106.114 89.7704 106.114 89.7036 106.181 89.5699C106.315 89.1022 106.517 88.5676 106.584 88.0998C106.651 87.8993 106.651 87.6989 106.718 87.5652C106.853 87.0306 106.92 86.5629 106.987 86.2287C106.987 86.1619 106.987 86.0951 106.987 86.0283C106.987 85.9614 106.987 85.8946 106.987 85.8278C106.987 85.761 106.987 85.6942 106.987 85.6942C106.987 85.6273 106.987 85.5605 106.987 85.4937C106.987 85.4269 106.987 85.36 106.987 85.36C106.987 85.2264 106.987 85.0927 106.92 84.9591C106.853 84.625 106.853 84.3577 106.786 83.9567C106.786 83.9567 106.786 83.9567 106.786 83.8899C106.718 83.6226 106.718 83.3553 106.651 83.088C106.651 82.9544 106.584 82.8207 106.584 82.6203C106.584 82.4198 106.517 82.2193 106.517 82.0189C106.517 81.8184 106.517 81.6179 106.517 81.4175C106.517 81.0833 106.517 80.816 106.584 80.5488C106.651 80.2815 106.651 80.0142 106.786 79.8137C106.786 79.7469 106.853 79.68 106.853 79.6132V79.5464C106.853 79.4796 106.92 79.4796 106.92 79.4128C107.122 79.1455 107.256 78.945 107.458 78.8113C107.659 78.6109 107.794 78.544 107.995 78.4772H108.063C108.264 78.4104 108.399 78.4104 108.6 78.4104H108.667C109.138 78.4772 109.474 78.7445 109.877 79.0786C110.213 79.3459 110.482 79.68 110.684 79.8805C110.751 79.9473 111.154 80.4819 111.692 81.0833C111.961 81.3506 112.23 81.6848 112.431 81.952C112.431 82.0189 112.498 82.0189 112.498 82.0857C112.566 82.1525 112.633 82.2193 112.7 82.353C113.036 82.7539 113.238 83.0212 113.439 83.4222C113.507 83.6226 113.641 83.8231 113.708 84.0236C113.775 84.1572 113.775 84.224 113.775 84.3577C113.843 84.8923 113.574 85.2264 113.238 85.4937C112.969 85.6942 112.7 85.9614 112.498 86.3624C112.364 86.5629 112.297 86.9638 112.162 87.3647C112.162 87.4316 112.095 87.5652 112.095 87.632C112.028 87.7657 112.028 87.8993 112.028 88.0998C111.961 88.3003 111.961 88.5007 111.894 88.7012C111.826 88.9017 111.826 89.1022 111.826 89.2358V89.3026C111.826 89.3694 111.826 89.5031 111.759 89.5699C111.759 89.6367 111.759 89.7036 111.759 89.7704C111.759 89.8372 111.759 89.8372 111.759 89.904C111.759 90.0377 111.759 90.1045 111.692 90.1713C111.692 90.2381 111.692 90.3718 111.692 90.5723C111.692 90.7059 111.692 90.9064 111.759 91.1737C111.759 91.5078 111.826 91.9087 111.826 92.3097C111.826 92.7106 111.894 93.2452 111.961 93.713C112.23 97.856 112.902 104.137 113.641 105.541Z" fill="#E85451"/>
<path d="M103.761 92.2428H104.03C103.963 91.3073 104.366 88.367 104.971 85.4268C105.71 81.8852 106.584 79.5463 107.391 79.0117C107.525 78.8781 107.727 78.8781 107.861 78.8781L107.928 78.6108C107.659 78.544 107.458 78.6108 107.189 78.7445C106.046 79.6132 105.173 83.2884 104.702 85.36C104.097 88.3002 103.694 91.3073 103.761 92.2428Z" fill="#37474F"/>
<path d="M105.038 106.075C105.105 106.142 106.516 106.209 108.129 106.209C108.129 105.808 108.062 105.474 107.995 105.139C106.449 100.595 106.449 98.7912 106.046 97.2543C105.374 94.6482 106.516 92.0421 107.189 89.6364C108.533 89.7701 109.743 90.3715 111.557 90.2378C111.624 89.5028 112.028 87.0971 112.364 86.4289C112.565 86.0279 112.834 85.8275 113.103 85.5602C111.423 85.7607 109.205 85.0256 109.07 83.4886C109.003 81.9517 107.592 81.9517 107.457 81.5508C107.256 80.8825 106.853 81.5508 106.449 80.6821C106.382 80.9494 106.382 81.2835 106.382 81.5508C106.382 82.2858 106.516 83.1545 106.651 83.9564C106.651 83.9564 106.651 83.9564 106.651 84.0232C106.785 84.8251 106.853 85.5602 106.853 86.1616C106.853 86.6294 106.718 87.3644 106.449 88.2331C105.912 90.2378 104.836 92.9776 104.635 94.5813C104.5 97.2543 104.836 105.941 105.038 106.075Z" fill="#CE3838"/>
<path d="M106.45 73.5989C107.189 73.3315 107.794 73.7326 108.265 74.1336L109.071 76.3393C108.063 77.8098 106.181 76.9408 105.71 75.5372C105.576 74.8688 105.777 73.8663 106.45 73.5989Z" fill="#49150F"/>
<path d="M112.43 72.1289C112.162 71.728 111.624 71.4607 111.153 71.327L110.817 71.2602C110.078 70.8593 109.07 71.6611 108.801 72.2626C108.465 72.9976 108.196 74.735 108.263 75.5369C108.398 77.2075 110.347 78.6776 111.691 78.3435C112.498 78.143 113.304 75.8042 112.968 75.0691C112.296 73.5322 113.237 73.2649 112.43 72.1289Z" fill="#FFA471"/>
<path d="M111.691 72.1955C111.557 72.9306 109.541 72.5297 109.137 73.0642C108.801 73.3984 108.869 73.9998 108.801 74.4007C108.734 74.7348 108.734 76.2049 108.331 76.2718L107.86 75.6035C107.659 75.4699 107.323 74.2671 107.256 73.9329C107.188 73.3315 107.188 72.5965 107.457 72.0619C107.592 71.7278 107.86 71.3937 108.264 71.1932C108.936 70.8591 110.952 70.7254 111.49 71.661C111.691 71.8614 111.759 71.9951 111.691 72.1955Z" fill="#632118"/>
<path d="M113.036 71.4611C112.835 70.9933 112.23 70.6591 111.759 70.5922C111.288 70.5254 110.683 70.6591 110.078 70.9264L109.339 71.1938C109.541 71.3943 110.952 71.1938 111.221 71.3943C111.49 71.528 111.692 71.7953 111.893 72.0627C111.961 72.1964 112.028 72.33 112.095 72.4637C112.23 72.5974 112.364 72.6642 112.498 72.7979C112.767 73.0653 112.767 73.3326 112.767 73.6668C112.767 73.7337 112.767 73.7337 112.767 73.8005C113.036 73.1321 113.372 72.1964 113.036 71.4611Z" fill="#632118"/>
<path d="M111.691 72.196C111.557 72.931 109.541 72.5301 109.137 73.0647C108.801 73.3988 108.869 74.0002 108.801 74.4012C108.734 74.7353 108.734 76.2054 108.331 76.2722L107.86 75.604C107.659 75.4703 107.323 74.2675 107.256 73.9334C107.188 73.332 107.188 72.5969 107.457 72.0623C107.457 72.2628 107.457 72.5301 107.592 72.5969C107.86 72.7974 107.995 72.3296 108.197 72.196C108.398 71.9955 108.734 71.795 109.003 71.8619C108.667 72.0623 108.264 72.4633 108.465 72.8642C108.6 72.8642 108.667 72.6637 108.734 72.5969C108.869 72.5301 109.003 72.4633 109.137 72.3964C109.406 72.3296 109.742 72.3296 110.078 72.3296C110.616 72.3296 111.221 72.3964 111.691 72.196Z" fill="#49150F"/>
<path d="M107.659 76.072C107.793 76.473 108.129 76.6736 108.398 76.6067C108.667 76.473 108.734 76.072 108.6 75.671C108.465 75.2699 108.129 75.0694 107.86 75.1363C107.592 75.2699 107.457 75.671 107.659 76.072Z" fill="#FFA471"/>
<path d="M108.398 76.2723C108.196 76.2055 108.062 76.0718 108.062 75.9381C108.062 75.7376 108.264 75.6708 108.398 75.8045C108.331 75.6708 107.86 75.0024 107.793 75.5371C107.928 75.4034 108.062 75.5371 108.129 75.6708C107.928 75.6708 107.86 75.9381 107.928 76.1387C107.995 76.2055 108.196 76.3392 108.398 76.2723Z" fill="#E07F4F"/>
<path d="M105.037 91.441H105.441C105.441 91.3742 105.441 91.3073 105.441 91.3073C105.441 91.04 105.441 90.6389 105.441 90.3716V90.3047C105.441 90.1711 105.441 90.0374 105.508 90.0374C105.575 90.0374 105.844 90.0374 105.911 90.0374C105.979 90.0374 105.979 90.0374 106.046 90.0374C106.315 90.0374 106.92 90.0374 107.054 90.2379C107.189 90.4384 107.121 90.7726 107.054 91.04C107.054 91.1736 106.987 91.2405 106.987 91.3742H107.39C107.39 91.3073 107.39 91.1736 107.458 91.1068C107.525 90.7726 107.592 90.3716 107.39 90.1042C107.121 89.77 106.449 89.77 106.046 89.77C106.046 89.77 105.979 89.77 105.911 89.77C105.642 89.77 105.441 89.77 105.306 89.8369C105.037 89.9705 104.97 90.2379 104.97 90.3716V90.4384C104.903 90.7726 104.97 91.1068 104.97 91.3742C105.037 91.3073 105.037 91.3742 105.037 91.441Z" fill="#37474F"/>
<path d="M103.424 95.1827L107.726 95.5837L108.062 95.3832C107.995 94.7818 109.944 92.1088 108.734 91.1733C108.532 91.0397 107.188 90.9728 106.516 90.9728C106.382 90.9728 106.247 90.9728 106.18 90.9728C106.046 90.9728 105.911 90.9728 105.777 90.9728C104.903 90.9728 104.567 91.0397 104.298 91.2401C103.021 91.9084 103.357 94.4477 103.424 95.1827Z" fill="#737D8E"/>
<path d="M107.658 95.517C107.658 94.6483 107.389 90.7057 109.002 91.1067C110.145 91.374 110.078 94.6483 110.078 95.3834L107.658 95.517Z" fill="#37474F"/>
<path d="M104.769 94.4483L105.306 94.5152C105.374 94.181 105.374 93.9136 105.306 93.6463C105.306 93.1784 105.306 92.7105 105.441 92.3095C105.643 91.8416 105.979 91.4406 106.382 91.0396C106.248 91.0396 106.113 91.0396 106.046 91.0396C105.911 91.0396 105.777 91.0396 105.643 91.0396C105.306 91.3737 105.038 91.7748 104.903 92.1758C104.701 92.7105 104.701 93.1784 104.701 93.7131C104.836 93.8468 104.836 94.1141 104.769 94.4483Z" fill="#37474F"/>
<path d="M104.701 93.2451H105.441V93.8466H104.701V93.2451Z" fill="#F4BD4D"/>
<path d="M108.532 92.4431C108.532 92.6436 108.667 92.7773 108.868 92.7773H109.07C109.272 92.7773 109.406 92.6436 109.406 92.4431C109.406 92.3094 109.339 92.1757 109.205 92.1089H109.137H108.936C108.667 92.1757 108.532 92.3094 108.532 92.4431ZM108.667 92.4431C108.667 92.3094 108.734 92.2426 108.868 92.2426H109.07H109.137C109.205 92.2426 109.272 92.3094 109.272 92.4431C109.272 92.5768 109.205 92.6436 109.07 92.6436H108.868C108.734 92.6436 108.667 92.5768 108.667 92.4431Z" fill="#F4BD4D"/>
<path d="M108.062 78.5439C108.197 78.5439 108.331 78.6107 108.465 78.7443C109.07 79.4794 109.406 81.9519 109.406 85.5603C109.406 88.5674 109.137 91.5744 108.869 92.4431L109.137 92.51C109.406 91.5744 109.675 88.5674 109.675 85.5603C109.675 83.422 109.608 79.613 108.667 78.5439C108.667 78.477 108.6 78.477 108.6 78.4102C108.398 78.477 108.197 78.477 108.062 78.5439Z" fill="#37474F"/>
<path d="M105.24 87.8994C105.912 87.6989 106.785 86.2288 107.323 85.0928C107.458 84.7587 107.592 84.4246 107.659 84.2241C107.659 84.1573 107.659 84.1573 107.659 84.0905C107.794 83.4891 107.794 83.0213 107.794 82.5535C107.794 82.1526 107.794 81.8185 107.794 81.2839L106.718 79.8138C106.584 80.5488 106.248 81.2171 106.113 81.8853C105.979 82.5535 105.71 82.5535 105.508 83.2218C105.374 83.8232 104.097 88.3004 105.24 87.8994Z" fill="#FFA471"/>
<path d="M105.24 86.4963C105.441 85.9617 106.987 85.4939 107.458 85.1598C107.592 84.8257 107.659 84.4916 107.727 84.2911C107.727 84.2243 107.727 84.2243 107.727 84.1575C107.794 83.6897 107.928 83.2219 107.995 82.7542L107.861 82.6205L107.122 81.685C107.323 85.2266 105.24 84.5584 105.24 86.4963Z" fill="#E07F4F"/>
<path d="M105.374 83.0212C106.181 80.3483 107.458 77.4749 108.735 78.945C109.407 79.68 109.004 80.9497 109.138 81.8184L108.6 84.625C108.331 84.4913 105.24 83.5558 105.374 83.0212Z" fill="#E85451"/>
<path d="M108.331 84.5591C108.398 84.626 109.81 83.6902 110.213 83.0887C110.348 82.955 110.348 82.8213 110.281 82.7545C110.55 82.4871 110.415 82.1529 110.213 81.8856C110.482 81.6182 110.281 81.2172 109.945 81.0835C110.146 80.7493 109.676 80.3483 109.407 80.7493C109.407 80.7493 109.407 80.8162 109.34 80.8162C109.34 80.883 109.272 80.9498 109.272 81.0167V81.0835V81.1504C109.272 80.9498 109.205 80.8162 109.071 80.6825C109.071 81.0167 108.869 81.2172 108.734 81.4845C108.6 81.8856 108.667 82.1529 108.667 82.554C108.667 83.1555 108.667 83.9576 108.331 84.5591Z" fill="#FFA471"/>
<path d="M104.769 87.1641C104.769 86.2954 105.24 85.8945 105.71 85.5603C106.248 85.1594 107.323 84.9589 107.794 84.4243C108.197 84.0234 108.667 83.5556 108.734 83.0211L109.608 83.6225C109.541 84.0234 106.987 88.3001 105.643 88.1665C104.903 88.0996 104.769 87.6987 104.769 87.1641Z" fill="#FFA471"/>
<path d="M109.272 81.0167C109.407 81.0835 109.474 81.2172 109.541 81.3509C110.012 81.3509 109.877 81.6851 109.944 81.9524C110.079 82.2198 110.213 82.4203 110.012 82.7545C110.146 82.8213 110.213 82.955 110.213 83.0887C110.348 82.955 110.348 82.8213 110.281 82.7545C110.549 82.4871 110.415 82.1529 110.213 81.8856C110.482 81.6182 110.281 81.2172 109.944 81.0835C110.146 80.7493 109.676 80.3483 109.407 80.7493C109.407 80.7493 109.407 80.8162 109.339 80.8162C109.339 80.883 109.272 80.9498 109.272 81.0167C109.339 80.9498 109.272 81.0167 109.272 81.0167Z" fill="#E07F4F"/>
<path d="M105.778 87.7662C105.778 87.7662 105.71 87.6987 105.778 87.7662C105.71 87.6987 105.71 87.6987 105.778 87.7662Z" fill="#E07F4F"/>
<path d="M105.105 87.4316C105.307 87.4985 105.508 87.699 105.71 87.7658C105.576 87.9664 105.105 87.699 105.105 87.4316Z" fill="#E07F4F"/>
<circle cx="34" cy="114" r="19" fill="#E85451"/>
<path d="M29.6137 109.26C29.6803 107.927 30.147 106.9 31.0137 106.18C31.8937 105.447 33.047 105.08 34.4737 105.08C35.447 105.08 36.2803 105.253 36.9737 105.6C37.667 105.933 38.187 106.393 38.5337 106.98C38.8937 107.553 39.0737 108.207 39.0737 108.94C39.0737 109.78 38.8537 110.493 38.4137 111.08C37.987 111.653 37.4737 112.04 36.8737 112.24V112.32C37.647 112.56 38.247 112.987 38.6737 113.6C39.1137 114.213 39.3337 115 39.3337 115.96C39.3337 116.76 39.147 117.473 38.7737 118.1C38.4137 118.727 37.8737 119.22 37.1537 119.58C36.447 119.927 35.5937 120.1 34.5937 120.1C33.087 120.1 31.8603 119.72 30.9137 118.96C29.967 118.2 29.467 117.08 29.4137 115.6H32.1337C32.1603 116.253 32.3803 116.78 32.7937 117.18C33.2203 117.567 33.8003 117.76 34.5337 117.76C35.2137 117.76 35.7337 117.573 36.0937 117.2C36.467 116.813 36.6537 116.32 36.6537 115.72C36.6537 114.92 36.4003 114.347 35.8937 114C35.387 113.653 34.6003 113.48 33.5337 113.48H32.9537V111.18H33.5337C35.427 111.18 36.3737 110.547 36.3737 109.28C36.3737 108.707 36.2003 108.26 35.8537 107.94C35.5203 107.62 35.0337 107.46 34.3937 107.46C33.767 107.46 33.2803 107.633 32.9337 107.98C32.6003 108.313 32.407 108.74 32.3537 109.26H29.6137Z" fill="white"/>
<defs>
<clipPath id="clip0_502_30">
<rect width="157.963" height="115.792" fill="white" transform="translate(84)"/>
</clipPath>
</defs>
</svg>
