<svg width="13" height="12" viewBox="0 0 13 12" fill="none" xmlns="http://www.w3.org/2000/svg">
<path d="M10.2917 0.5H2.70833C1.9903 0.500794 1.30193 0.764441 0.794202 1.23311C0.286478 1.70178 0.00086009 2.3372 0 3L0 9C0.00086009 9.6628 0.286478 10.2982 0.794202 10.7669C1.30193 11.2356 1.9903 11.4992 2.70833 11.5H10.2917C11.0097 11.4992 11.6981 11.2356 12.2058 10.7669C12.7135 10.2982 12.9991 9.6628 13 9V3C12.9991 2.3372 12.7135 1.70178 12.2058 1.23311C11.6981 0.764441 11.0097 0.500794 10.2917 0.5ZM2.70833 1.5H10.2917C10.616 1.50059 10.9327 1.59076 11.2011 1.7589C11.4695 1.92705 11.6772 2.16547 11.7975 2.4435L7.64942 6.273C7.34415 6.55366 6.93085 6.71123 6.5 6.71123C6.06915 6.71123 5.65585 6.55366 5.35058 6.273L1.2025 2.4435C1.32283 2.16547 1.53054 1.92705 1.7989 1.7589C2.06726 1.59076 2.38399 1.50059 2.70833 1.5ZM10.2917 10.5H2.70833C2.27736 10.5 1.86403 10.342 1.55928 10.0607C1.25454 9.77936 1.08333 9.39782 1.08333 9V3.75L4.58467 6.98C5.09309 7.44813 5.78189 7.71102 6.5 7.71102C7.21811 7.71102 7.90691 7.44813 8.41533 6.98L11.9167 3.75V9C11.9167 9.39782 11.7455 9.77936 11.4407 10.0607C11.136 10.342 10.7226 10.5 10.2917 10.5Z" fill="#374957"/>
</svg>
